<?xml version="1.0" encoding="UTF-8"?>
<svg version="1.1" xmlns="http://www.w3.org/2000/svg" width="568" height="167">
<path d="M0 0 C0.82757813 0.41121094 1.65515625 0.82242187 2.5078125 1.24609375 C13.37201407 7.11010469 20.74116372 16.47948693 25 28 C25.9391788 31.98356997 26.58147063 35.93016272 27 40 C27.90621094 40.14695313 28.81242188 40.29390625 29.74609375 40.4453125 C42.21904866 42.74192007 50.67730463 47.44576732 58 58 C64.30167259 69.24206154 64.97992942 82.12842553 61.5625 94.4375 C58.23579631 103.07504851 50.85995378 110.83923726 42.71875 115.23046875 C41.9865625 115.54628906 41.254375 115.86210938 40.5 116.1875 C39.7678125 116.51105469 39.035625 116.83460938 38.28125 117.16796875 C33.80435822 118.80080771 29.69143719 119.10809692 24.94726562 119.01489258 C23.74831665 118.9961055 22.54936768 118.97731842 21.31408691 118.95796204 C20.02450073 118.93702988 18.73491455 118.91609772 17.40625 118.89453125 C13.94138454 118.86912858 10.47645298 118.86104449 7.01151276 118.85153675 C3.40494761 118.83815142 -0.1989656 118.80360544 -3.8046875 118.72241211 C-21.72840578 117.54008651 -21.72840578 117.54008651 -37.51977539 124.14701843 C-39.92290571 126.61156627 -41.92730993 129.2496615 -44 132 C-45.85197477 133.61424277 -47.74270132 135.18638429 -49.6875 136.6875 C-54.30897757 140.36981766 -58.58603393 144.31318642 -62.80859375 148.4453125 C-63.53175781 148.95835937 -64.25492188 149.47140625 -65 150 C-66.32 149.67 -67.64 149.34 -69 149 C-68.67 139.43 -68.34 129.86 -68 120 C-70.43375 119.7525 -72.8675 119.505 -75.375 119.25 C-84.90336961 118.13088971 -93.04834983 115.95165017 -100 109 C-100 108.34 -100 107.68 -100 107 C-100.66 107 -101.32 107 -102 107 C-110.09875675 96.39717083 -112.23716014 85.12223793 -111 72 C-108.67920324 61.51052311 -102.69417638 53.202215 -94 47 C-88.33457007 43.40440355 -82.58293752 42.02521158 -76 41 C-75.86464844 40.14019531 -75.72929688 39.28039063 -75.58984375 38.39453125 C-73.26243102 25.61466612 -68.45799554 14.23849289 -58 6 C-54.76995497 3.77553503 -51.46521574 1.83317383 -48 0 C-46.9275 -0.5775 -45.855 -1.155 -44.75 -1.75 C-30.83097145 -6.38967618 -13.18703042 -7.0954437 0 0 Z " fill="#3B72D2" transform="translate(122,12)"/>
<path d="M0 0 C0.99 0 1.98 0 3 0 C3.02887512 3.64581687 3.04675585 7.29160463 3.0625 10.9375 C3.07087891 11.97841797 3.07925781 13.01933594 3.08789062 14.09179688 C3.09111328 15.08115234 3.09433594 16.07050781 3.09765625 17.08984375 C3.10289307 18.00628662 3.10812988 18.92272949 3.11352539 19.86694336 C3 22 3 22 2 23 C1.92773498 24.85287502 1.9161878 26.70833878 1.9375 28.5625 C1.94652344 29.57441406 1.95554687 30.58632813 1.96484375 31.62890625 C1.97644531 32.41136719 1.98804687 33.19382813 2 34 C1.38253906 34.14695313 0.76507813 34.29390625 0.12890625 34.4453125 C-5.78567101 36.01173022 -10.08280821 38.09902336 -14.89453125 41.890625 C-17 43 -17 43 -19.62890625 42.80078125 C-22.55657907 41.81202849 -23.87607069 40.19472695 -26 38 C-26.99 38 -27.98 38 -29 38 C-28.95231597 39.87880872 -28.95231597 39.87880872 -28 42 C-25.02236957 44.26325246 -25.02236957 44.26325246 -22 46 C-22.67289996 49.07010609 -23.72882455 51.75550835 -25 54.625 C-26.85973947 59.14342838 -27.55880931 63.20562187 -27.82421875 68.06640625 C-28 70 -28 70 -29 71 C-30.51469448 71.23192865 -32.03754562 71.41215238 -33.5625 71.5625 C-34.80193359 71.68818359 -34.80193359 71.68818359 -36.06640625 71.81640625 C-36.70449219 71.87699219 -37.34257813 71.93757813 -38 72 C-38 72.99 -38 73.98 -38 75 C-34.37 74.67 -30.74 74.34 -27 74 C-26.63648438 74.71285156 -26.27296875 75.42570312 -25.8984375 76.16015625 C-22.22384394 83.16072808 -18.68024072 89.54650619 -12 94 C-13.33333333 98 -14.66666667 102 -16 106 C-14.68 106 -13.36 106 -12 106 C-11.01 103.03 -10.02 100.06 -9 97 C-3.75539443 95.36106076 -2.1105111 96.47237222 4 98 C4 105.26 4 112.52 4 120 C0.535 120.495 0.535 120.495 -3 121 C-4.67862618 122.24029169 -4.67862618 122.24029169 -5.75 124 C-8.2478679 127.25119314 -10.91582415 129.69369374 -14.125 132.25 C-19.36820821 136.42739918 -24.2782483 140.85173511 -29.17578125 145.421875 C-30.10777344 146.27265625 -31.03976563 147.1234375 -32 148 C-32.51095215 148.48662109 -33.0219043 148.97324219 -33.54833984 149.47460938 C-35.10546875 150.890625 -35.10546875 150.890625 -38 153 C-39.32 152.67 -40.64 152.34 -42 152 C-41.67 142.43 -41.34 132.86 -41 123 C-43.43375 122.7525 -45.8675 122.505 -48.375 122.25 C-57.90336961 121.13088971 -66.04834983 118.95165017 -73 112 C-73 111.34 -73 110.68 -73 110 C-73.66 110 -74.32 110 -75 110 C-83.09875675 99.39717083 -85.23716014 88.12223793 -84 75 C-81.67920324 64.51052311 -75.69417638 56.202215 -67 50 C-61.33457007 46.40440355 -55.58293752 45.02521158 -49 44 C-48.86464844 43.14019531 -48.72929688 42.28039063 -48.58984375 41.39453125 C-46.04691265 27.43125089 -40.45924548 16.19123925 -28.99609375 7.4765625 C-24.48205372 4.42008921 -20.31627052 3.09991804 -15 2 C-14.34 1.67 -13.68 1.34 -13 1 C-10.97967529 0.95466312 -8.95796597 0.96146906 -6.9375 1 C-4.95869142 1.03764677 -2.97861741 1.04662427 -1 1 C-0.67 0.67 -0.34 0.34 0 0 Z " fill="#2E115A" transform="translate(95,9)"/>
<path d="M0 0 C0.82757813 0.41121094 1.65515625 0.82242187 2.5078125 1.24609375 C13.37201407 7.11010469 20.74116372 16.47948693 25 28 C25.9391788 31.98356997 26.58147063 35.93016272 27 40 C29.31 40.33 31.62 40.66 34 41 C34 41.33 34 41.66 34 42 C30.7 42 27.4 42 24 42 C24.04125 40.9275 24.0825 39.855 24.125 38.75 C24.00665094 35.19952819 23.63503616 33.96350304 22 31 C22 29.68 22 28.36 22 27 C21.34 27 20.68 27 20 27 C20 26.01 20 25.02 20 24 C19.34 24 18.68 24 18 24 C17.5875 22.906875 17.175 21.81375 16.75 20.6875 C15.3730662 17.42875666 13.96831407 15.97887604 11 14 C10.505 12.515 10.505 12.515 10 11 C9.34 11 8.68 11 8 11 C6.9171875 9.88625 6.9171875 9.88625 5.8125 8.75 C-0.94674439 2.14096104 -8.34985321 0.19483265 -17.625 -0.125 C-18.40875 -0.08375 -19.1925 -0.0425 -20 0 C-21.00109515 3.31070838 -21.10356134 6.30084769 -21.0625 9.75 C-21.05347656 10.73484375 -21.04445312 11.7196875 -21.03515625 12.734375 C-21.02355469 13.48203125 -21.01195312 14.2296875 -21 15 C-20.34 15.33 -19.68 15.66 -19 16 C-18.3125 19 -18.3125 19 -18 22 C-18.495 22.495 -18.495 22.495 -19 23 C-19.23075082 24.34747084 -19.41153063 25.70377565 -19.5625 27.0625 C-19.706875 28.361875 -19.85125 29.66125 -20 31 C-19.0925 31.04125 -18.185 31.0825 -17.25 31.125 C-12.26206252 31.77648571 -8.19077782 34.38337977 -3.8671875 36.8203125 C-0.63000801 38.15223104 0.74098005 38.17077055 4 37 C4.680625 36.29875 5.36125 35.5975 6.0625 34.875 C7.0215625 33.946875 7.0215625 33.946875 8 33 C10.25 33.25 10.25 33.25 12 34 C12 38 12 38 10.46875 39.703125 C9.8190625 40.21359375 9.169375 40.7240625 8.5 41.25 C7.8503125 41.77078125 7.200625 42.2915625 6.53125 42.828125 C5.77328125 43.40820312 5.77328125 43.40820312 5 44 C5.28875 44.680625 5.5775 45.36125 5.875 46.0625 C8.66886394 53.35758918 9.19172965 59.23494905 9 67 C12.63 67 16.26 67 20 67 C20.33 68.32 20.66 69.64 21 71 C20.67 71.33 20.34 71.66 20 72 C18.14227838 71.91015699 16.28752015 71.75388139 14.4375 71.5625 C13.42558594 71.46066406 12.41367188 71.35882813 11.37109375 71.25390625 C10.19740234 71.12822266 10.19740234 71.12822266 9 71 C8.72800781 71.7321875 8.45601563 72.464375 8.17578125 73.21875 C5.83551879 78.75452034 2.49075789 83.63611512 -1.9375 87.6875 C-4.35707046 89.87243672 -4.35707046 89.87243672 -3.9375 93.125 C-3.09326902 96.15196521 -3.09326902 96.15196521 -1 99 C-1.375 101.1875 -1.375 101.1875 -2 103 C-2.99 103 -3.98 103 -5 103 C-6.32 100.03 -7.64 97.06 -9 94 C-9.78375 94.165 -10.5675 94.33 -11.375 94.5 C-19.31056595 95.59456082 -27.07449285 94.90577225 -35 94 C-36.32 96.97 -37.64 99.94 -39 103 C-40.32 103 -41.64 103 -43 103 C-42.49202991 98.6822542 -41.80317221 94.96697886 -40 91 C-40.44730469 90.67128906 -40.89460938 90.34257813 -41.35546875 90.00390625 C-46.43713204 86.00575326 -49.19684974 81.77427956 -52 76 C-52.66 74.68 -53.32 73.36 -54 72 C-59.445 72.495 -59.445 72.495 -65 73 C-65.33 71.68 -65.66 70.36 -66 69 C-64.41727399 67.41727399 -62.61965997 67.65264253 -60.4375 67.4375 C-59.61121094 67.35371094 -58.78492188 67.26992187 -57.93359375 67.18359375 C-57.29550781 67.12300781 -56.65742187 67.06242187 -56 67 C-55.96132812 66.09121094 -55.96132812 66.09121094 -55.921875 65.1640625 C-55.52573492 59.3119931 -54.31238834 54.58752367 -51.9375 49.2265625 C-50.83098958 46.75729167 -50.83098958 46.75729167 -50 43 C-52.31 41.35 -54.62 39.7 -57 38 C-56.67 36.68 -56.34 35.36 -56 34 C-53.06506604 34.41927628 -52.11010463 34.87924008 -50.0625 37.125 C-49.381875 37.74375 -48.70125 38.3625 -48 39 C-44.01788876 38.66593026 -41.46019519 37.19942035 -38.1875 35 C-33.6257121 32.14118839 -30.34839014 31.19808852 -25 31 C-25.08378906 30.21753906 -25.16757813 29.43507812 -25.25390625 28.62890625 C-25.40666016 27.11103516 -25.40666016 27.11103516 -25.5625 25.5625 C-25.71912109 24.04849609 -25.71912109 24.04849609 -25.87890625 22.50390625 C-25.93884766 21.26447266 -25.93884766 21.26447266 -26 20 C-25.505 19.505 -25.505 19.505 -25 19 C-24.84285346 17.36743242 -24.74914586 15.72864662 -24.68359375 14.08984375 C-24.62075195 12.60581055 -24.62075195 12.60581055 -24.55664062 11.09179688 C-24.51732422 10.05087891 -24.47800781 9.00996094 -24.4375 7.9375 C-24.37272461 6.37032227 -24.37272461 6.37032227 -24.30664062 4.77148438 C-24.20018775 2.18113116 -24.0981724 -0.40932186 -24 -3 C-24.60070312 -2.67257812 -25.20140625 -2.34515625 -25.8203125 -2.0078125 C-29.46296821 -0.32357384 -33.1859519 -0.96743808 -37.125 -1.125 C-40.06106303 -0.99734509 -41.4790823 -0.39431289 -44 1 C-46.25 0.625 -46.25 0.625 -48 0 C-34.29740423 -7.17755016 -13.6549993 -7.34724011 0 0 Z " fill="#E2E7F0" transform="translate(122,12)"/>
<path d="M0 0 C3.96 0 7.92 0 12 0 C12.94137255 2.82411765 13.11725382 4.52918032 13.09765625 7.44921875 C13.09443359 8.29677734 13.09121094 9.14433594 13.08789062 10.01757812 C13.07951172 10.89865234 13.07113281 11.77972656 13.0625 12.6875 C13.05798828 13.58017578 13.05347656 14.47285156 13.04882812 15.39257812 C13.03704983 17.59511987 13.02060164 19.79752599 13 22 C13.54398438 21.14792969 14.08796875 20.29585937 14.6484375 19.41796875 C17.0487636 15.8174796 19.79412061 12.57860818 22.625 9.3125 C25.23392771 6.28820353 27.77956996 3.33064506 30 0 C32.7885289 -0.22107787 35.34653181 -0.28107535 38.125 -0.1875 C38.87910156 -0.17396484 39.63320312 -0.16042969 40.41015625 -0.14648438 C42.27374127 -0.11109985 44.13695978 -0.05729167 46 0 C44.42458807 3.57819624 42.24313686 6.31479973 39.75 9.3125 C38.95335937 10.27929688 38.15671875 11.24609375 37.3359375 12.2421875 C35.39840778 14.52963897 33.40624321 16.73460243 31.375 18.9375 C28.75358082 21.60391752 28.75358082 21.60391752 29.15844727 23.87280273 C30.19968047 26.50473336 31.55514038 28.71785478 33.08984375 31.09765625 C33.70923828 32.06380859 34.32863281 33.02996094 34.96679688 34.02539062 C35.61712891 35.02763672 36.26746094 36.02988281 36.9375 37.0625 C37.58396484 38.06861328 38.23042969 39.07472656 38.89648438 40.11132812 C41.24148488 43.75667158 43.59565507 47.3934826 46 51 C46 52.32 46 53.64 46 55 C43.91781638 55.10832169 41.83400871 55.18573541 39.75 55.25 C38.58984375 55.29640625 37.4296875 55.3428125 36.234375 55.390625 C33 55 33 55 30.8984375 53.53125 C27.67086799 49.22782398 25.15132849 44.53846071 22.53515625 39.84765625 C22.10847656 39.09871094 21.68179688 38.34976563 21.2421875 37.578125 C20.66766846 36.54800293 20.66766846 36.54800293 20.08154297 35.49707031 C19.72463379 35.00303711 19.36772461 34.50900391 19 34 C16.8456086 33.80625394 16.8456086 33.80625394 14.921875 35.484375 C12.30262402 38.91282547 12.33074307 42.09540227 12.25 46.25 C12.22035156 46.99507812 12.19070312 47.74015625 12.16015625 48.5078125 C12.0897657 50.33796672 12.04258168 52.16898769 12 54 C8.04 54 4.08 54 0 54 C0 36.18 0 18.36 0 0 Z " fill="#382456" transform="translate(216,55)"/>
<path d="M0 0 C1.19109375 -0.00386719 1.19109375 -0.00386719 2.40625 -0.0078125 C4.5 0.125 4.5 0.125 6.5 1.125 C6.83 7.395 7.16 13.665 7.5 20.125 C8.82 18.805 10.14 17.485 11.5 16.125 C17.05307257 14.85052433 21.19561679 14.71391672 26.5 17.125 C31.89714547 21.91880603 35.08882932 26.57601642 35.74609375 33.84765625 C36.07915467 41.83102552 34.82522996 47.53618265 30.1328125 54.01171875 C26.43832037 57.95434841 23.153234 58.56439153 17.8125 58.75 C13.84437375 58.72202261 12.15709772 58.6845514 9.10546875 56.0859375 C8.57566406 55.43882813 8.04585938 54.79171875 7.5 54.125 C7.17 55.445 6.84 56.765 6.5 58.125 C4.52090602 58.15186553 2.54171029 58.17133375 0.5625 58.1875 C-0.53964844 58.19910156 -1.64179688 58.21070313 -2.77734375 58.22265625 C-5.5 58.125 -5.5 58.125 -6.5 57.125 C-6.59365006 55.3757128 -6.61744438 53.62263746 -6.61352539 51.87084961 C-6.61344986 50.74976303 -6.61337433 49.62867645 -6.61329651 48.47361755 C-6.60813522 47.2538472 -6.60297394 46.03407684 -6.59765625 44.77734375 C-6.5962413 43.53578018 -6.59482635 42.29421661 -6.59336853 41.01502991 C-6.58870591 37.70894509 -6.57971497 34.40292854 -6.56866455 31.09686279 C-6.55844827 27.7253885 -6.55387045 24.35390717 -6.54882812 20.98242188 C-6.53777395 14.36326225 -6.52101736 7.74413507 -6.5 1.125 C-4.13386544 -0.05806728 -2.63219264 -0.00854608 0 0 Z M7.5 31.125 C6.52625301 34.18695584 6.19567536 36.92395562 6.5 40.125 C8.21092738 43.36986228 9.92569207 45.55069207 12.5 48.125 C17.35031402 47.9560727 17.35031402 47.9560727 21.375 45.5 C23.51302231 40.98639734 23.70764254 37.25759566 22.8125 32.375 C21.43561634 28.9655738 20.77440671 27.71542612 17.5 26.125 C12.51083494 25.10158153 10.39382657 27.18618051 7.5 31.125 Z " fill="#372354" transform="translate(317.5,51.875)"/>
<path d="M0 0 C3.82545305 2.81495602 5.51912397 5.09300672 7.86328125 9.37109375 C7.86328125 13.66109375 7.86328125 17.95109375 7.86328125 22.37109375 C-0.71671875 22.37109375 -9.29671875 22.37109375 -18.13671875 22.37109375 C-15.86267905 28.29597895 -15.86267905 28.29597895 -12.32421875 29.99609375 C-9.03300156 30.74097507 -9.03300156 30.74097507 -6.44921875 28.49609375 C-1.74111084 25.47579811 2.41671704 26.02220352 7.86328125 26.37109375 C7.59708445 30.18658119 7.12073852 32.0547891 4.67578125 35.05859375 C-2.28130979 40.77886861 -8.32177862 41.19187261 -17.13671875 40.37109375 C-22.86559042 38.42736943 -26.66232136 34.84508259 -29.75 29.6640625 C-32.42357254 23.31526911 -32.54933411 15.26014592 -30.1875 8.7578125 C-27.26712087 3.86594715 -23.59413182 0.48809969 -18.38671875 -1.87890625 C-11.77423054 -3.40486507 -5.99564575 -3.4724281 0 0 Z M-17.13671875 11.37109375 C-17.46671875 12.69109375 -17.79671875 14.01109375 -18.13671875 15.37109375 C-13.51671875 15.37109375 -8.89671875 15.37109375 -4.13671875 15.37109375 C-4.87602807 10.34236605 -4.87602807 10.34236605 -8.13671875 7.37109375 C-12.61411377 6.56745875 -14.40833303 7.86316925 -17.13671875 11.37109375 Z " fill="#372454" transform="translate(388.13671875,69.62890625)"/>
<path d="M0 0 C3.96 0 7.92 0 12 0 C13.43779893 6.89192877 13.34163108 13.92927297 13.51757812 20.94140625 C13.56881836 22.44767578 13.56881836 22.44767578 13.62109375 23.984375 C13.6461499 24.89928711 13.67120605 25.81419922 13.69702148 26.75683594 C13.79633856 29.2004026 13.79633856 29.2004026 16 31 C18.7499925 31.35256314 20.35599515 31.39100294 22.75 29.9375 C26.17834275 24.62356874 25.08790265 16.69907296 25 10.625 C24.9746203 8.82557921 24.95354334 7.02609075 24.9375 5.2265625 C24.92589844 4.43846191 24.91429687 3.65036133 24.90234375 2.83837891 C25 1 25 1 26 0 C29.96 0 33.92 0 38 0 C38 13.86 38 27.72 38 42 C34.37 42 30.74 42 27 42 C26.34 41.01 25.68 40.02 25 39 C24.29746094 39.4846875 23.59492188 39.969375 22.87109375 40.46875 C18.07422726 43.02707879 13.29777517 42.75272854 8 42 C4.98716382 40.70384677 4.1590298 39.67037897 2 37 C0.2874097 32.13048831 -0.23946398 27.89755322 -0.1953125 22.75390625 C-0.1924826 22.09792953 -0.18965271 21.44195282 -0.18673706 20.76609802 C-0.17565984 18.69803591 -0.15058063 16.63042827 -0.125 14.5625 C-0.11495402 13.14909485 -0.10583102 11.73568283 -0.09765625 10.32226562 C-0.07576184 6.88136606 -0.04132051 3.44072748 0 0 Z " fill="#412D5C" transform="translate(266,68)"/>
<path d="M0 0 C0.82757813 0.41121094 1.65515625 0.82242187 2.5078125 1.24609375 C13.37201407 7.11010469 20.74116372 16.47948693 25 28 C25.9391788 31.98356997 26.58147063 35.93016272 27 40 C29.31 40.33 31.62 40.66 34 41 C34 41.33 34 41.66 34 42 C30.7 42 27.4 42 24 42 C24.04125 40.9275 24.0825 39.855 24.125 38.75 C24.00665094 35.19952819 23.63503616 33.96350304 22 31 C22 29.68 22 28.36 22 27 C21.34 27 20.68 27 20 27 C20 26.01 20 25.02 20 24 C19.34 24 18.68 24 18 24 C17.5875 22.906875 17.175 21.81375 16.75 20.6875 C15.3730662 17.42875666 13.96831407 15.97887604 11 14 C10.505 12.515 10.505 12.515 10 11 C9.34 11 8.68 11 8 11 C7.278125 10.2575 6.55625 9.515 5.8125 8.75 C-0.94674439 2.14096104 -8.34985321 0.19483265 -17.625 -0.125 C-18.40875 -0.08375 -19.1925 -0.0425 -20 0 C-21.00109515 3.31070838 -21.10356134 6.30084769 -21.0625 9.75 C-21.05347656 10.73484375 -21.04445312 11.7196875 -21.03515625 12.734375 C-21.02355469 13.48203125 -21.01195312 14.2296875 -21 15 C-20.34 15.33 -19.68 15.66 -19 16 C-18.3125 19 -18.3125 19 -18 22 C-18.495 22.495 -18.495 22.495 -19 23 C-19.23075082 24.34747084 -19.41153063 25.70377565 -19.5625 27.0625 C-19.706875 28.361875 -19.85125 29.66125 -20 31 C-18.68 31.33 -17.36 31.66 -16 32 C-18.66666667 32 -21.33333333 32 -24 32 C-26.50324332 32.01666329 -26.50324332 32.01666329 -29 33 C-31.33414647 35.95849927 -31.33414647 35.95849927 -33 39 C-30.36 38.67 -27.72 38.34 -25 38 C-24.80610904 40.4788213 -24.61959877 42.95780931 -24.4375 45.4375 C-24.35338867 46.49807617 -24.35338867 46.49807617 -24.26757812 47.58007812 C-24.13809007 49.38427837 -24.06478392 51.19231952 -24 53 C-25 54 -25 54 -26.84765625 54.09765625 C-28.8984375 54.06510417 -30.94921875 54.03255208 -33 54 C-34.06546953 57.1964086 -34.07427838 59.65747276 -34 63 C-36.29047223 63.36181089 -38.58242945 63.71423224 -40.875 64.0625 C-42.15117188 64.25972656 -43.42734375 64.45695312 -44.7421875 64.66015625 C-48 65 -48 65 -50 64 C-50.625 61.4375 -50.625 61.4375 -51 59 C-51.66 60.65 -52.32 62.3 -53 64 C-53.33 64 -53.66 64 -54 64 C-54.30346876 58.43640602 -53.69785554 54.29955401 -51.75390625 49.078125 C-50.85500736 46.71145275 -50.85500736 46.71145275 -50 43 C-52.31 41.35 -54.62 39.7 -57 38 C-56.67 36.68 -56.34 35.36 -56 34 C-53.06506604 34.41927628 -52.11010463 34.87924008 -50.0625 37.125 C-49.381875 37.74375 -48.70125 38.3625 -48 39 C-44.01788876 38.66593026 -41.46019519 37.19942035 -38.1875 35 C-33.6257121 32.14118839 -30.34839014 31.19808852 -25 31 C-25.12568359 29.82630859 -25.12568359 29.82630859 -25.25390625 28.62890625 C-25.35574219 27.61699219 -25.45757812 26.60507812 -25.5625 25.5625 C-25.66691406 24.55316406 -25.77132812 23.54382813 -25.87890625 22.50390625 C-25.91886719 21.67761719 -25.95882812 20.85132812 -26 20 C-25.67 19.67 -25.34 19.34 -25 19 C-24.84285346 17.36743242 -24.74914586 15.72864662 -24.68359375 14.08984375 C-24.62075195 12.60581055 -24.62075195 12.60581055 -24.55664062 11.09179688 C-24.51732422 10.05087891 -24.47800781 9.00996094 -24.4375 7.9375 C-24.37272461 6.37032227 -24.37272461 6.37032227 -24.30664062 4.77148438 C-24.20018775 2.18113116 -24.0981724 -0.40932186 -24 -3 C-24.60070312 -2.67257812 -25.20140625 -2.34515625 -25.8203125 -2.0078125 C-29.46296821 -0.32357384 -33.1859519 -0.96743808 -37.125 -1.125 C-40.06106303 -0.99734509 -41.4790823 -0.39431289 -44 1 C-46.25 0.625 -46.25 0.625 -48 0 C-34.29740423 -7.17755016 -13.6549993 -7.34724011 0 0 Z " fill="#EAE8F1" transform="translate(122,12)"/>
<path d="M0 0 C5.55803609 3.50839487 9.32154345 7.67929732 10.9140625 14.171875 C10.9759375 15.05875 11.0378125 15.945625 11.1015625 16.859375 C10.1015625 17.859375 10.1015625 17.859375 8.25390625 17.95703125 C6.203125 17.92447917 4.15234375 17.89192708 2.1015625 17.859375 C1.7303125 16.786875 1.3590625 15.714375 0.9765625 14.609375 C-0.75225851 10.58089586 -2.98022531 8.89684534 -6.8984375 6.859375 C-10.43666978 5.49851643 -11.77912107 5.82169613 -15.4609375 6.984375 C-19.99783439 9.45904603 -22.10689795 11.8305191 -23.98046875 16.6328125 C-26.25379922 24.62332726 -25.73000365 32.61519853 -22.06640625 40.0546875 C-19.65877092 43.77484643 -17.19944682 45.68637246 -12.8984375 46.859375 C-6.98030731 46.75177263 -4.00897035 45.06332905 0.1015625 40.859375 C1.97079453 37.70948627 1.97079453 37.70948627 3.1015625 34.859375 C5.7415625 34.859375 8.3815625 34.859375 11.1015625 34.859375 C10.70107707 40.66641366 10.10105919 44.35994122 6.1015625 48.859375 C-1.68892386 54.07181615 -8.52119951 55.88407953 -17.8984375 54.859375 C-25.09414915 52.30567302 -29.20792946 46.44846796 -32.93359375 40.09375 C-36.54507467 32.36686059 -36.09324125 21.90964634 -33.7734375 13.859375 C-31.40785313 7.98963061 -26.97985109 2.4442382 -21.2734375 -0.47265625 C-14.60266622 -2.34881067 -6.47521898 -2.54819938 0 0 Z " fill="#8BA8D2" transform="translate(436.8984375,55.140625)"/>
<path d="M0 0 C0 6.27 0 12.54 0 19 C1.65 17.68 3.3 16.36 5 15 C8.15625 14.46875 8.15625 14.46875 11.5 14.5 C13.15515625 14.48453125 13.15515625 14.48453125 14.84375 14.46875 C18.69036411 15.1161999 20.29475847 16.21855448 23 19 C24.96937865 22.940489 25.30786879 26.3510427 25.44921875 30.7265625 C25.49240234 32.0053125 25.53558594 33.2840625 25.58007812 34.6015625 C25.59756104 35.26188477 25.61504395 35.92220703 25.63305664 36.60253906 C25.68753148 38.62616949 25.75772079 40.64881305 25.83007812 42.671875 C26.13572368 52.59282897 26.13572368 52.59282897 25 56 C22.36 56 19.72 56 17 56 C16.97494385 55.17798096 16.9498877 54.35596191 16.92407227 53.5090332 C16.80787345 49.77670626 16.68525495 46.04461683 16.5625 42.3125 C16.52318359 41.01892578 16.48386719 39.72535156 16.44335938 38.39257812 C16.40146484 37.14541016 16.35957031 35.89824219 16.31640625 34.61328125 C16.27974854 33.46641846 16.24309082 32.31955566 16.20532227 31.13793945 C16.02159702 28.33006722 15.6300618 25.73774186 15 23 C9.98431857 21.88827866 9.98431857 21.88827866 5.1875 23.3125 C2.04126421 25.73959618 0.6650111 27.09434525 0 31 C-0.06903891 32.86732991 -0.0846613 34.73699445 -0.0625 36.60546875 C-0.05476563 37.67087891 -0.04703125 38.73628906 -0.0390625 39.83398438 C-0.02617187 40.94064453 -0.01328125 42.04730469 0 43.1875 C0.02538069 45.38927519 0.04645728 47.59110572 0.0625 49.79296875 C0.07410156 50.7677417 0.08570313 51.74251465 0.09765625 52.74682617 C0 55 0 55 -1 56 C-3.64 56 -6.28 56 -9 56 C-9 37.52 -9 19.04 -9 0 C-7 -1 -7 -1 0 0 Z " fill="#6490C6" transform="translate(464,53)"/>
<path d="M0 0 C1.20527344 -0.01675781 2.41054688 -0.03351563 3.65234375 -0.05078125 C7.41801021 0.35037222 9.12573708 0.95215755 12.0625 3.3125 C15.78430207 7.95071493 16.54761092 10.99306747 16.453125 16.8984375 C16.44746521 17.60022125 16.44180542 18.302005 16.43597412 19.02505493 C16.41374483 21.24659087 16.36358056 23.46645923 16.3125 25.6875 C16.29241731 27.20179947 16.27416964 28.71612446 16.2578125 30.23046875 C16.21392633 33.92501268 16.14499577 37.61859333 16.0625 41.3125 C13.0925 41.3125 10.1225 41.3125 7.0625 41.3125 C6.7325 40.6525 6.4025 39.9925 6.0625 39.3125 C5.051875 39.8075 4.04125 40.3025 3 40.8125 C-0.77810832 42.41533383 -3.8092825 42.77119083 -7.9375 42.3125 C-11.12209646 40.79257896 -13.67329966 39.02954041 -15.9375 36.3125 C-17.17579052 32.59762845 -17.4878822 29.17271488 -16.9375 25.3125 C-14.75666539 21.72970029 -12.79035823 19.85364329 -8.9375 18.3125 C-6.34185089 17.86516473 -3.79867966 17.48860011 -1.1875 17.1875 C-0.49011719 17.10113281 0.20726562 17.01476562 0.92578125 16.92578125 C2.63722332 16.71478154 4.34976629 16.51274499 6.0625 16.3125 C5.79856499 12.88019552 5.79856499 12.88019552 5.0625 9.3125 C2.18655164 6.98372638 2.18655164 6.98372638 -1.375 7.375 C-5.63790608 8.49681739 -6.36658818 9.88461758 -8.9375 13.3125 C-11.87626905 14.29208968 -13.14574656 14.70837672 -15.9375 13.3125 C-15.48463369 8.44418719 -14.35428531 5.82690774 -10.9375 2.3125 C-7.38883792 -0.02343123 -4.18241846 0.01339088 0 0 Z M-0.375 23.125 C-1.82712891 23.35123047 -1.82712891 23.35123047 -3.30859375 23.58203125 C-6.13323441 24.36688683 -7.19434591 24.99763621 -8.9375 27.3125 C-10.27083333 30.3125 -10.27083333 30.3125 -8.9375 33.3125 C-5.2001144 35.8040904 -3.36418417 35.77043285 1.0625 35.3125 C4.09178108 34.03925163 4.09178108 34.03925163 6.0625 31.3125 C6.75941293 28.31319326 6.99025801 25.38606809 7.0625 22.3125 C4.51750406 22.3125 2.13739663 22.71460852 -0.375 23.125 Z " fill="#85A4CE" transform="translate(513.9375,67.6875)"/>
<path d="M0 0 C0.66 0.99 1.32 1.98 2 3 C2.99 2.34 3.98 1.68 5 1 C7 3 7 3 7.125 5.625 C7.08375 6.40875 7.0425 7.1925 7 8 C7.66 8.33 8.32 8.66 9 9 C8.67 9.99 8.34 10.98 8 12 C9.98 12 11.96 12 14 12 C14 12.33 14 12.66 14 13 C12.35 13 10.7 13 9 13 C9.7631861 14.60781893 10.53587058 16.21113138 11.3125 17.8125 C11.74175781 18.70582031 12.17101562 19.59914063 12.61328125 20.51953125 C14.3122956 23.55861325 15.75050181 25.49239136 19 26.8125 C21.31973545 27.24180162 21.31973545 27.24180162 24 25 C25 28 25 28 24 31 C29.28 30.67 34.56 30.34 40 30 C39.01 28.35 38.02 26.7 37 25 C34.19906223 19.91754719 33.3519489 16.72445138 34 11 C35.98 10.34 37.96 9.68 40 9 C40 9.66 40 10.32 40 11 C40.66 11.33 41.32 11.66 42 12 C42.144375 12.886875 42.28875 13.77375 42.4375 14.6875 C43.04505723 18.26533702 44.3588666 20.78908683 46 24 C46 24.99 46 25.98 46 27 C46.763125 26.195625 47.52625 25.39125 48.3125 24.5625 C51 22 51 22 54 21 C56.36506843 18.99878825 56.9893322 18.03200339 58 15 C58.66 15 59.32 15 60 15 C59.05066101 18.35433109 58.10251165 21.69246505 57 25 C56.34 25 55.68 25 55 25 C54.896875 25.763125 54.79375 26.52625 54.6875 27.3125 C54 30 54 30 52.375 31.4375 C50.647403 33.0298725 50.647403 33.0298725 51.1875 36 C51.86974913 39.14901583 51.86974913 39.14901583 54 42 C53.625 44.1875 53.625 44.1875 53 46 C52.01 46 51.02 46 50 46 C48.68 43.03 47.36 40.06 46 37 C44.824375 37.2475 44.824375 37.2475 43.625 37.5 C35.68943405 38.59456082 27.92550715 37.90577225 20 37 C18.68 39.97 17.36 42.94 16 46 C14.68 46 13.36 46 12 46 C12.50797009 41.6822542 13.19682779 37.96697886 15 34 C14.55269531 33.67128906 14.10539062 33.34257813 13.64453125 33.00390625 C8.56286796 29.00575326 5.80315026 24.77427956 3 19 C2.34 17.68 1.68 16.36 1 15 C-2.63 15.33 -6.26 15.66 -10 16 C-10.33 14.68 -10.66 13.36 -11 12 C-8.83909114 9.83909114 -3.7994153 10.27599869 -1 10 C-0.67 6.7 -0.34 3.4 0 0 Z " fill="#DAD8E4" transform="translate(67,69)"/>
<path d="M0 0 C2.97 0 5.94 0 9 0 C9 6.93 9 13.86 9 21 C10.32 21 11.64 21 13 21 C13.6875 22.6875 13.6875 22.6875 14 25 C13.525625 25.721875 13.05125 26.44375 12.5625 27.1875 C10.36364391 31.14544096 10.14817827 34.56596368 11 39 C12.13817467 41.01946964 13.36806024 42.66406777 14.90625 44.39453125 C16 46 16 46 16 50 C15.01 50.495 15.01 50.495 14 51 C13.67 51.66 13.34 52.32 13 53 C12.34 52.01 11.68 51.02 11 50 C10.67 51.32 10.34 52.64 10 54 C6.7 54 3.4 54 0 54 C0 36.18 0 18.36 0 0 Z " fill="#260F46" transform="translate(313,54)"/>
<path d="M0 0 C2.33294775 -0.04241723 4.66702567 -0.04092937 7 0 C8 1 8 1 8.09765625 3.28515625 C8.08605469 4.20167969 8.07445312 5.11820313 8.0625 6.0625 C8.05347656 6.98160156 8.04445313 7.90070313 8.03515625 8.84765625 C8.02355469 9.55792969 8.01195312 10.26820312 8 11 C10.64 11 13.28 11 16 11 C16.04254356 12.99954746 16.04080783 15.00041636 16 17 C15.67 17.33 15.34 17.66 15 18 C12.69 18 10.38 18 8 18 C8.33 26.58 8.66 35.16 9 44 C11.64 44.33 14.28 44.66 17 45 C17 47.31 17 49.62 17 52 C7.15002614 52.62101411 7.15002614 52.62101411 2.875 50.3125 C-0.35286912 46.33146142 -0.12315734 42.01568078 -0.09765625 37.04296875 C-0.09282227 35.37524414 -0.09282227 35.37524414 -0.08789062 33.67382812 C-0.07951172 32.52333984 -0.07113281 31.37285156 -0.0625 30.1875 C-0.05798828 29.01767578 -0.05347656 27.84785156 -0.04882812 26.64257812 C-0.0370693 23.76166642 -0.02063426 20.88085956 0 18 C-1.65 18 -3.3 18 -5 18 C-6.0625 15.625 -6.0625 15.625 -7 13 C-6.67 12.34 -6.34 11.68 -6 11 C-4.02 11 -2.04 11 0 11 C0 7.37 0 3.74 0 0 Z " fill="#4174B9" transform="translate(540,57)"/>
<path d="M0 0 C2.85617083 1.12860823 4.36646853 0.84347945 7.25390625 -0.109375 C7.93453125 -0.810625 8.61515625 -1.511875 9.31640625 -2.234375 C10.27546875 -3.1625 10.27546875 -3.1625 11.25390625 -4.109375 C13.50390625 -3.859375 13.50390625 -3.859375 15.25390625 -3.109375 C15.25390625 -1.789375 15.25390625 -0.469375 15.25390625 0.890625 C13.7578125 2.3828125 13.7578125 2.3828125 11.81640625 3.765625 C8.94535041 6.03468526 8.34043589 6.57911829 7.31640625 10.265625 C7.29578125 11.131875 7.27515625 11.998125 7.25390625 12.890625 C7.91390625 12.890625 8.57390625 12.890625 9.25390625 12.890625 C9.25390625 15.200625 9.25390625 17.510625 9.25390625 19.890625 C8.59390625 19.890625 7.93390625 19.890625 7.25390625 19.890625 C5.25390625 16.890625 5.25390625 16.890625 5.25390625 12.890625 C2.28196775 14.01514227 -0.08050062 15.11356291 -2.74609375 16.890625 C-4.06609375 16.890625 -5.38609375 16.890625 -6.74609375 16.890625 C-6.74609375 17.550625 -6.74609375 18.210625 -6.74609375 18.890625 C-7.40609375 18.890625 -8.06609375 18.890625 -8.74609375 18.890625 C-8.74609375 19.550625 -8.74609375 20.210625 -8.74609375 20.890625 C-9.73609375 20.560625 -10.72609375 20.230625 -11.74609375 19.890625 C-11.41609375 18.900625 -11.08609375 17.910625 -10.74609375 16.890625 C-10.08609375 16.890625 -9.42609375 16.890625 -8.74609375 16.890625 C-8.84921875 16.148125 -8.95234375 15.405625 -9.05859375 14.640625 C-8.74609375 11.890625 -8.74609375 11.890625 -6.30859375 9.703125 C-5.46296875 9.105 -4.61734375 8.506875 -3.74609375 7.890625 C-3.41609375 7.230625 -3.08609375 6.570625 -2.74609375 5.890625 C-8.03882467 4.0799539 -13.3849623 2.48447489 -18.74609375 0.890625 C-18.74609375 4.190625 -18.74609375 7.490625 -18.74609375 10.890625 C-19.40609375 11.220625 -20.06609375 11.550625 -20.74609375 11.890625 C-21.92180826 8.21651715 -21.81976121 4.72133317 -21.74609375 0.890625 C-24.38609375 1.220625 -27.02609375 1.550625 -29.74609375 1.890625 C-26.60755471 -4.61063445 -26.60755471 -4.61063445 -23.37109375 -6.484375 C-15.03451513 -7.92171614 -7.0718368 -4.16412725 0 0 Z " fill="#EAEFF4" transform="translate(118.74609375,49.109375)"/>
<path d="M0 0 C3.37810937 2.61035724 4.36615632 5.92737222 5 10 C5.15377122 13.68554885 5.09116285 17.3079045 5 21 C8.63 21 12.26 21 16 21 C16.495 22.98 16.495 22.98 17 25 C16.505 25.495 16.505 25.495 16 26 C14.14227838 25.91015699 12.28752015 25.75388139 10.4375 25.5625 C9.42558594 25.46066406 8.41367188 25.35882813 7.37109375 25.25390625 C6.58863281 25.17011719 5.80617187 25.08632812 5 25 C4.73445313 25.72574219 4.46890625 26.45148438 4.1953125 27.19921875 C2.99927052 30.00170928 1.59670893 32.30479352 -0.125 34.8125 C-0.66382812 35.60269531 -1.20265625 36.39289063 -1.7578125 37.20703125 C-2.16773437 37.79871094 -2.57765625 38.39039063 -3 39 C-3.495 37.515 -3.495 37.515 -4 36 C-3.34 36 -2.68 36 -2 36 C-1.87625 35.46375 -1.7525 34.9275 -1.625 34.375 C-0.87793984 31.5361714 0.05303364 28.77776798 1 26 C0.34 26 -0.32 26 -1 26 C-1.33 27.32 -1.66 28.64 -2 30 C-2.66 30 -3.32 30 -4 30 C-4.33 30.99 -4.66 31.98 -5 33 C-6.485 33.495 -6.485 33.495 -8 34 C-9.00642948 35.32848691 -10.00692179 36.66150329 -11 38 C-11.66 38 -12.32 38 -13 38 C-13.8709379 36.27921959 -14.72114558 34.54793677 -15.5625 32.8125 C-16.03816406 31.84957031 -16.51382813 30.88664062 -17.00390625 29.89453125 C-18.0953885 26.72281223 -17.96567452 25.16301775 -17 22 C-14.87506859 21.97306425 -12.75004088 21.95363372 -10.625 21.9375 C-9.44164063 21.92589844 -8.25828125 21.91429688 -7.0390625 21.90234375 C-4 22 -4 22 -2 23 C-2 22.01 -2 21.02 -2 20 C-5.63 19.67 -9.26 19.34 -13 19 C-13.33 18.01 -13.66 17.02 -14 16 C-9.71 16.66 -5.42 17.32 -1 18 C-2.485 11.07 -2.485 11.07 -4 4 C-3.34 4 -2.68 4 -2 4 C-1.34 6.31 -0.68 8.62 0 11 C0.66 11 1.32 11 2 11 C2 8.69 2 6.38 2 4 C1.34 4 0.68 4 0 4 C0 2.68 0 1.36 0 0 Z " fill="#D6E4F4" transform="translate(126,58)"/>
<path d="M0 0 C0 0.66 0 1.32 0 2 C0.66 2.33 1.32 2.66 2 3 C2.144375 3.886875 2.28875 4.77375 2.4375 5.6875 C3.04505723 9.26533702 4.3588666 11.78908683 6 15 C6 15.99 6 16.98 6 18 C6.763125 17.195625 7.52625 16.39125 8.3125 15.5625 C11 13 11 13 14 12 C16.36506843 9.99878825 16.9893322 9.03200339 18 6 C18.66 6 19.32 6 20 6 C19.05066101 9.35433109 18.10251165 12.69246505 17 16 C16.34 16 15.68 16 15 16 C14.896875 16.763125 14.79375 17.52625 14.6875 18.3125 C14 21 14 21 12.375 22.4375 C10.647403 24.0298725 10.647403 24.0298725 11.1875 27 C11.86974913 30.14901583 11.86974913 30.14901583 14 33 C13.625 35.1875 13.625 35.1875 13 37 C12.01 37 11.02 37 10 37 C8.68 34.03 7.36 31.06 6 28 C5.21625 28.165 4.4325 28.33 3.625 28.5 C-2.69424664 29.37162023 -9.19433503 30.09635465 -15 27 C-14.4140625 25.046875 -14.4140625 25.046875 -13 23 C-9.9609375 22.390625 -9.9609375 22.390625 -6.375 22.25 C-5.18648437 22.19328125 -3.99796875 22.1365625 -2.7734375 22.078125 C-1.85820313 22.05234375 -0.94296875 22.0265625 0 22 C-1.16116248 18.92971904 -2.33548667 16.47703548 -4.125 13.6875 C-6.49172437 9.70789679 -6.31962997 6.55472713 -6 2 C-2.25 0 -2.25 0 0 0 Z " fill="#E5EBF4" transform="translate(107,78)"/>
<path d="M0 0 C4.875 1.75 4.875 1.75 6 4 C6.08573394 6.25120742 6.10712188 8.50499303 6.09765625 10.7578125 C6.0962413 11.42086395 6.09482635 12.08391541 6.09336853 12.76705933 C6.08776754 14.88641863 6.075215 17.00567259 6.0625 19.125 C6.05748512 20.56119639 6.05292219 21.99739444 6.04882812 23.43359375 C6.03779782 26.95576345 6.02053259 30.47787145 6 34 C4.35 34 2.7 34 1 34 C1 33.01 1 32.02 1 31 C-0.32 30.67 -1.64 30.34 -3 30 C-1.68 29.34 -0.36 28.68 1 28 C0.67 24.04 0.34 20.08 0 16 C-1.32 16.33 -2.64 16.66 -4 17 C-6.33300933 17.03888349 -8.66709801 17.0448635 -11 17 C-11 17.66 -11 18.32 -11 19 C-12.65 19.33 -14.3 19.66 -16 20 C-16.33 22.64 -16.66 25.28 -17 28 C-16.01 28.33 -15.02 28.66 -14 29 C-14 29.66 -14 30.32 -14 31 C-11.36 31 -8.72 31 -6 31 C-6.33 32.32 -6.66 33.64 -7 35 C-16.66102684 35.7613769 -16.66102684 35.7613769 -21.1875 33.1875 C-23.84116649 28.5207072 -23.41359021 24.2480002 -23 19 C-21.68 18.34 -20.36 17.68 -19 17 C-19 16.34 -19 15.68 -19 15 C-13.06 14.01 -7.12 13.02 -1 12 C-1.020625 10.39125 -1.04125 8.7825 -1.0625 7.125 C-1.125 2.25 -1.125 2.25 0 0 Z " fill="#477CC0" transform="translate(522,73)"/>
<path d="M0 0 C2.64 0 5.28 0 8 0 C7.59951457 5.80703866 6.99949669 9.50056622 3 14 C-4.76928961 19.19825887 -11.64181851 21.06477413 -21 20 C-24.92691875 18.46364681 -27.99558102 16.62741303 -30.234375 13 C-31.24377878 10.36319013 -30.7427074 8.67374664 -30 6 C-30.66 6 -31.32 6 -32 6 C-31.67 4.68 -31.34 3.36 -31 2 C-28 4 -28 4 -27.3125 6.625 C-27.209375 7.40875 -27.10625 8.1925 -27 9 C-26.113125 9.12375 -25.22625 9.2475 -24.3125 9.375 C-21 10 -21 10 -18.5625 11.125 C-14.94835172 12.35909941 -12.67896816 11.96814951 -9 11 C-4.45027939 7.93768805 -2.11138811 5.0438716 0 0 Z " fill="#7697C9" transform="translate(440,90)"/>
<path d="M0 0 C0.82757813 0.41121094 1.65515625 0.82242187 2.5078125 1.24609375 C13.37201407 7.11010469 20.74116372 16.47948693 25 28 C25.9391788 31.98356997 26.58147063 35.93016272 27 40 C29.31 40.33 31.62 40.66 34 41 C34 41.33 34 41.66 34 42 C30.7 42 27.4 42 24 42 C24.04125 40.9275 24.0825 39.855 24.125 38.75 C24.00665094 35.19952819 23.63503616 33.96350304 22 31 C22 29.68 22 28.36 22 27 C21.34 27 20.68 27 20 27 C20 26.01 20 25.02 20 24 C19.34 24 18.68 24 18 24 C17.5875 22.906875 17.175 21.81375 16.75 20.6875 C15.3730662 17.42875666 13.96831407 15.97887604 11 14 C10.505 12.515 10.505 12.515 10 11 C9.34 11 8.68 11 8 11 C7.278125 10.2575 6.55625 9.515 5.8125 8.75 C-0.94674439 2.14096104 -8.34985321 0.19483265 -17.625 -0.125 C-18.40875 -0.08375 -19.1925 -0.0425 -20 0 C-21.00109515 3.31070838 -21.10356134 6.30084769 -21.0625 9.75 C-21.05347656 10.73484375 -21.04445313 11.7196875 -21.03515625 12.734375 C-21.02355469 13.48203125 -21.01195313 14.2296875 -21 15 C-20.34 15.33 -19.68 15.66 -19 16 C-18.375 19.0625 -18.375 19.0625 -18 22 C-18.66 22.33 -19.32 22.66 -20 23 C-20.33 22.01 -20.66 21.02 -21 20 C-22.32 19.67 -23.64 19.34 -25 19 C-24.67 11.74 -24.34 4.48 -24 -3 C-25.98 -2.01 -25.98 -2.01 -28 -1 C-31.06194562 -0.86687193 -34.06358402 -1.00254336 -37.125 -1.125 C-40.06106303 -0.99734509 -41.4790823 -0.39431289 -44 1 C-46.25 0.625 -46.25 0.625 -48 0 C-34.29740423 -7.17755016 -13.6549993 -7.34724011 0 0 Z " fill="#72A6E1" transform="translate(122,12)"/>
<path d="M0 0 C2.31 0 4.62 0 7 0 C7 0.33 7 0.66 7 1 C5.02 1 3.04 1 1 1 C1.33 1.99 1.66 2.98 2 4 C2.99 3.67 3.98 3.34 5 3 C5 5.31 5 7.62 5 10 C4.34 10 3.68 10 3 10 C-0.15102723 15.90817605 1.33929114 22.32778927 1.74462891 28.85839844 C1.83153002 30.2859201 1.91486491 31.71366333 1.99462891 33.14160156 C2.10999529 35.19920611 2.23733582 37.25576511 2.3671875 39.3125 C2.44050293 40.54613281 2.51381836 41.77976563 2.58935547 43.05078125 C2.71408865 46.11597847 2.71408865 46.11597847 5 48 C6.485 47.505 6.485 47.505 8 47 C7.505 45.515 7.505 45.515 7 44 C6.34 43.67 5.68 43.34 5 43 C5.33 34.42 5.66 25.84 6 17 C6.99 17.33 7.98 17.66 9 18 C9 26.58 9 35.16 9 44 C11.64 44.33 14.28 44.66 17 45 C17 47.31 17 49.62 17 52 C7.15002614 52.62101411 7.15002614 52.62101411 2.875 50.3125 C-0.35286912 46.33146142 -0.12315734 42.01568078 -0.09765625 37.04296875 C-0.09282227 35.37524414 -0.09282227 35.37524414 -0.08789062 33.67382812 C-0.07951172 32.52333984 -0.07113281 31.37285156 -0.0625 30.1875 C-0.05798828 29.01767578 -0.05347656 27.84785156 -0.04882812 26.64257812 C-0.0370693 23.76166642 -0.02063426 20.88085956 0 18 C-1.65 18 -3.3 18 -5 18 C-6.0625 15.625 -6.0625 15.625 -7 13 C-6.67 12.34 -6.34 11.68 -6 11 C-4.02 11 -2.04 11 0 11 C0 7.37 0 3.74 0 0 Z " fill="#789CC8" transform="translate(540,57)"/>
<path d="M0 0 C0.33 0 0.66 0 1 0 C2.00926479 4.15626368 2.10239579 8.04365094 2.0625 12.3125 C2.05347656 13.56675781 2.04445313 14.82101563 2.03515625 16.11328125 C2.02355469 17.06589844 2.01195313 18.01851562 2 19 C8.45954549 19.0253794 14.9190781 19.04287928 21.37866211 19.05493164 C23.5756071 19.05995675 25.77254876 19.06677788 27.96948242 19.07543945 C31.12940292 19.08758475 34.28927915 19.09324659 37.44921875 19.09765625 C38.91979988 19.10539818 38.91979988 19.10539818 40.42008972 19.11329651 C41.80095512 19.11340981 41.80095512 19.11340981 43.2097168 19.11352539 C44.0157988 19.115746 44.8218808 19.11796661 45.65238953 19.12025452 C48.18447332 18.9905505 50.52278255 18.52724492 53 18 C54.093125 17.896875 55.18625 17.79375 56.3125 17.6875 C60.12658769 16.97639891 62.83135995 15.77174019 66.203125 13.9375 C68 13 68 13 71 12 C69.8759417 15.25976906 69.07187022 15.96186478 65.9375 17.625 C64.4834375 18.305625 64.4834375 18.305625 63 19 C62.67 19.66 62.34 20.32 62 21 C54.67435474 23.57482195 47.34424937 23.25566757 39.65625 23.1953125 C38.27763068 23.19157576 36.89900868 23.18873191 35.52038574 23.18673706 C31.91679366 23.17915258 28.31336645 23.15954962 24.70983887 23.1373291 C21.02272775 23.11675802 17.33558963 23.10771142 13.6484375 23.09765625 C6.43221705 23.07629802 -0.78386825 23.04222592 -8 23 C-7.67 22.34 -7.34 21.68 -7 21 C-4.69 21 -2.38 21 0 21 C0 14.07 0 7.14 0 0 Z " fill="#687BBC" transform="translate(99,108)"/>
<path d="M0 0 C1.18851562 0.00902344 2.37703125 0.01804688 3.6015625 0.02734375 C4.51679688 0.03894531 5.43203125 0.05054688 6.375 0.0625 C6.705 0.7225 7.035 1.3825 7.375 2.0625 C9.01863134 2.78409424 10.68550386 3.45601421 12.375 4.0625 C12.375 4.7225 12.375 5.3825 12.375 6.0625 C13.035 6.0625 13.695 6.0625 14.375 6.0625 C14.375 6.7225 14.375 7.3825 14.375 8.0625 C7.375 7.0625 7.375 7.0625 4.0625 6.375 C-0.82000416 5.96122846 -5.06751891 6.1435606 -9.625 8.0625 C-15.99252329 14.01921533 -16.75647875 19.97525743 -17.05078125 28.34765625 C-17.625 31.0625 -17.625 31.0625 -19.66796875 32.43359375 C-20.31378906 32.64113281 -20.95960938 32.84867188 -21.625 33.0625 C-22.77743755 29.60518736 -22.79324837 26.82990787 -22.8125 23.1875 C-22.82667969 21.97320312 -22.84085937 20.75890625 -22.85546875 19.5078125 C-22.63547255 16.21905579 -22.04215618 14.00884052 -20.625 11.0625 C-19.635 11.0625 -18.645 11.0625 -17.625 11.0625 C-17.3671875 10.46824219 -17.109375 9.87398437 -16.84375 9.26171875 C-15.52663023 6.884993 -14.21156066 5.59464427 -12.125 3.875 C-11.5165625 3.36582031 -10.908125 2.85664062 -10.28125 2.33203125 C-6.8460655 -0.30107008 -4.27185676 -0.04188095 0 0 Z " fill="#4574B6" transform="translate(426.625,54.9375)"/>
<path d="M0 0 C5.95712094 2.30469605 10.13799076 6.27598152 13 12 C13.8125 15.3125 13.8125 15.3125 14 18 C13 19 13 19 11.15234375 19.09765625 C9.1015625 19.06510417 7.05078125 19.03255208 5 19 C4.62875 17.9275 4.2575 16.855 3.875 15.75 C2.16859798 11.72776666 -0.1871835 10.14470928 -4 8 C-4.99 7.34 -5.98 6.68 -7 6 C-2.13103697 6.59619955 2.32790951 7.56976822 7 9 C7 8.34 7 7.68 7 7 C6.34 7 5.68 7 5 7 C5 6.34 5 5.68 5 5 C3.02 4.34 1.04 3.68 -1 3 C-1 2.34 -1 1.68 -1 1 C-8.6511467 1.02332667 -14.44054908 1.25845762 -20.4140625 6.33203125 C-22.08701724 8.0163593 -22.08701724 8.0163593 -23.5859375 10.19921875 C-24.05257813 10.79347656 -24.51921875 11.38773438 -25 12 C-25.66 12 -26.32 12 -27 12 C-27 9.875 -27 9.875 -26 7 C-18.18080382 -0.18334946 -10.34093487 -1.45504501 0 0 Z " fill="#7EA0CC" transform="translate(434,54)"/>
<path d="M0 0 C1.19109375 -0.00386719 1.19109375 -0.00386719 2.40625 -0.0078125 C4.5 0.125 4.5 0.125 6.5 1.125 C6.83 8.055 7.16 14.985 7.5 22.125 C6.84 22.125 6.18 22.125 5.5 22.125 C5.5 15.525 5.5 8.925 5.5 2.125 C2.2 2.125 -1.1 2.125 -4.5 2.125 C-4.5 19.945 -4.5 37.765 -4.5 56.125 C-1.2 56.125 2.1 56.125 5.5 56.125 C5.5 54.475 5.5 52.825 5.5 51.125 C6.16 51.785 6.82 52.445 7.5 53.125 C7.125 55.75 7.125 55.75 6.5 58.125 C4.52090602 58.15186553 2.54171029 58.17133375 0.5625 58.1875 C-0.53964844 58.19910156 -1.64179688 58.21070313 -2.77734375 58.22265625 C-5.5 58.125 -5.5 58.125 -6.5 57.125 C-6.59365006 55.3757128 -6.61744438 53.62263746 -6.61352539 51.87084961 C-6.61344986 50.74976303 -6.61337433 49.62867645 -6.61329651 48.47361755 C-6.60813522 47.2538472 -6.60297394 46.03407684 -6.59765625 44.77734375 C-6.5962413 43.53578018 -6.59482635 42.29421661 -6.59336853 41.01502991 C-6.58870591 37.70894509 -6.57971497 34.40292854 -6.56866455 31.09686279 C-6.55844827 27.7253885 -6.55387045 24.35390717 -6.54882812 20.98242188 C-6.53777395 14.36326225 -6.52101736 7.74413507 -6.5 1.125 C-4.13386544 -0.05806728 -2.63219264 -0.00854608 0 0 Z " fill="#9D93AE" transform="translate(317.5,51.875)"/>
<path d="M0 0 C-1.26691507 0.67408308 -2.53870749 1.33900497 -3.8125 2 C-4.52019531 2.37125 -5.22789063 2.7425 -5.95703125 3.125 C-8 4 -8 4 -11 4 C-11.33 4.66 -11.66 5.32 -12 6 C-12.845625 6.185625 -13.69125 6.37125 -14.5625 6.5625 C-21.8770348 9.62130546 -26.20350082 16.44740285 -29.21044922 23.5534668 C-30.53633702 27.66191505 -30.59394366 31.58876887 -30.5 35.875 C-30.4851355 37.18174683 -30.4851355 37.18174683 -30.4699707 38.51489258 C-30.28356259 44.99332873 -29.61155761 51.43167874 -26 57 C-25.01 57.33 -24.02 57.66 -23 58 C-21.8671875 59.77734375 -21.8671875 59.77734375 -20.875 61.9375 C-20.54242188 62.64777344 -20.20984375 63.35804687 -19.8671875 64.08984375 C-19.58101562 64.72019531 -19.29484375 65.35054688 -19 66 C-18.67 66.66 -18.34 67.32 -18 68 C-19.32 67.34 -20.64 66.68 -22 66 C-22 65.34 -22 64.68 -22 64 C-22.66 64 -23.32 64 -24 64 C-32.09875675 53.39717083 -34.23716014 42.12223793 -33 29 C-30.68703385 18.54591569 -24.70662731 10.15122307 -16 4 C-5.93820515 -1.9087088 -5.93820515 -1.9087088 0 0 Z " fill="#A299B1" transform="translate(44,55)"/>
<path d="M0 0 C1.26328125 0.01804687 2.5265625 0.03609375 3.828125 0.0546875 C4.79234375 0.07789062 5.7565625 0.10109375 6.75 0.125 C7.08 1.115 7.41 2.105 7.75 3.125 C7.09 3.125 6.43 3.125 5.75 3.125 C5.75 3.785 5.75 4.445 5.75 5.125 C4.75419922 5.11146484 4.75419922 5.11146484 3.73828125 5.09765625 C-1.53719114 5.11316272 -1.53719114 5.11316272 -5.8515625 7.71484375 C-6.64797663 8.97112281 -7.4198358 10.24336834 -8.1640625 11.53125 C-9.25 13.125 -9.25 13.125 -11.9375 14.125 C-14.25 14.125 -14.25 14.125 -16.25 13.125 C-15.79713369 8.25668719 -14.66678531 5.63940774 -11.25 2.125 C-7.61492173 -0.32087633 -4.29033428 -0.07945063 0 0 Z " fill="#5684BF" transform="translate(514.25,67.875)"/>
<path d="M0 0 C0 0.99 0 1.98 0 3 C0.66 3 1.32 3 2 3 C1.67 3.66 1.34 4.32 1 5 C-4.445 4.505 -4.445 4.505 -10 4 C-10.88747193 7.54988771 -11.10545467 10.14180778 -11.0625 13.75 C-11.05347656 14.73484375 -11.04445313 15.7196875 -11.03515625 16.734375 C-11.02355469 17.48203125 -11.01195313 18.2296875 -11 19 C-10.34 19.33 -9.68 19.66 -9 20 C-8.375 23.0625 -8.375 23.0625 -8 26 C-8.66 26.33 -9.32 26.66 -10 27 C-10.33 26.01 -10.66 25.02 -11 24 C-12.32 23.67 -13.64 23.34 -15 23 C-14.67 15.74 -14.34 8.48 -14 1 C-15.98 1.99 -15.98 1.99 -18 3 C-21.06194562 3.13312807 -24.06358402 2.99745664 -27.125 2.875 C-30.06106303 3.00265491 -31.4790823 3.60568711 -34 5 C-36.25 4.625 -36.25 4.625 -38 4 C-26.13284048 -2.21613118 -12.89608644 -1.15533946 0 0 Z " fill="#74A6E9" transform="translate(112,8)"/>
<path d="M0 0 C-0.49658297 5.66104589 -1.54510684 9.87674471 -4 15 C-8.54260035 13.21540701 -10.82692679 9.99422445 -13.25 5.875 C-14 4 -14 4 -14 1 C-9.32798795 -0.20568053 -4.78503708 -0.09382426 0 0 Z " fill="#392058" transform="translate(90,81)"/>
<path d="M0 0 C0.66 0 1.32 0 2 0 C2.02887512 3.64581687 2.04675585 7.29160463 2.0625 10.9375 C2.07087891 11.97841797 2.07925781 13.01933594 2.08789062 14.09179688 C2.09272461 15.57583008 2.09272461 15.57583008 2.09765625 17.08984375 C2.10551147 18.46450806 2.10551147 18.46450806 2.11352539 19.86694336 C2 22 2 22 1 23 C0.92773498 24.85287502 0.9161878 26.70833878 0.9375 28.5625 C0.94652344 29.57441406 0.95554687 30.58632813 0.96484375 31.62890625 C0.97644531 32.41136719 0.98804687 33.19382813 1 34 C0.38253906 34.14695313 -0.23492187 34.29390625 -0.87109375 34.4453125 C-6.78567101 36.01173022 -11.08280821 38.09902336 -15.89453125 41.890625 C-18 43 -18 43 -20.6484375 42.80078125 C-23.54330009 41.81498917 -24.42712495 40.56626981 -26 38 C-25.01 37.505 -25.01 37.505 -24 37 C-23.34 37.66 -22.68 38.32 -22 39 C-18.40320934 38.67673447 -18.40320934 38.67673447 -15 38 C-15 37.34 -15 36.68 -15 36 C-11.5647952 33.70986347 -10.014669 33.82157027 -6 34 C-6 33.34 -6 32.68 -6 32 C-4.02 32 -2.04 32 0 32 C-0.33 31.29875 -0.66 30.5975 -1 29.875 C-2.10123871 26.70893872 -2.22195686 24.32935296 -2 21 C-1.67 20.34 -1.34 19.68 -1 19 C-0.84932786 17.5534758 -0.75138964 16.1012066 -0.68359375 14.6484375 C-0.64169922 13.79765625 -0.59980469 12.946875 -0.55664062 12.0703125 C-0.51732422 11.18085938 -0.47800781 10.29140625 -0.4375 9.375 C-0.39431641 8.4778125 -0.35113281 7.580625 -0.30664062 6.65625 C-0.20043139 4.43765717 -0.09838806 2.2189512 0 0 Z " fill="#3B1D68" transform="translate(96,9)"/>
<path d="M0 0 C3.3772445 1.39275254 4.87070305 2.82273931 6.75 5.9375 C7.17796875 6.62714844 7.6059375 7.31679687 8.046875 8.02734375 C9 10 9 10 9 13 C5.99686252 14.50156874 3.20932478 14.09281204 -0.125 14.0625 C-1.40632813 14.05347656 -2.68765625 14.04445313 -4.0078125 14.03515625 C-5.48894531 14.01775391 -5.48894531 14.01775391 -7 14 C-6.34097701 10.42959697 -4.83770842 7.82267745 -2.9375 4.75 C-2.38964844 3.85796875 -1.84179688 2.9659375 -1.27734375 2.046875 C-0.64505859 1.03367187 -0.64505859 1.03367187 0 0 Z " fill="#446DBF" transform="translate(98,86)"/>
<path d="M0 0 C10.55808656 -0.18451025 10.55808656 -0.18451025 15 1 C13.62091009 6.51635966 10.8578521 10.86958227 7 15 C6.34 15 5.68 15 5 15 C4.15733289 13.25447527 3.32619962 11.5033792 2.5 9.75 C2.0359375 8.77546875 1.571875 7.8009375 1.09375 6.796875 C0 4 0 4 0 0 Z " fill="#547DC4" transform="translate(108,81)"/>
<path d="M0 0 C1.32 0.66 2.64 1.32 4 2 C4 10.91 4 19.82 4 29 C2.35 29 0.7 29 -1 29 C-1.02903892 24.91668161 -1.04681189 20.8333898 -1.0625 16.75 C-1.07087891 15.59113281 -1.07925781 14.43226562 -1.08789062 13.23828125 C-1.09111328 12.12324219 -1.09433594 11.00820312 -1.09765625 9.859375 C-1.10289307 8.83295898 -1.10812988 7.80654297 -1.11352539 6.74902344 C-1.01336951 4.32374344 -0.69923078 2.31302639 0 0 Z " fill="#4475BA" transform="translate(484,78)"/>
<path d="M0 0 C2.475 0.495 2.475 0.495 5 1 C5.02900455 4.6041498 5.04680018 8.20826962 5.0625 11.8125 C5.07087891 12.83666016 5.07925781 13.86082031 5.08789062 14.91601562 C5.09111328 15.89892578 5.09433594 16.88183594 5.09765625 17.89453125 C5.10289307 18.80050049 5.10812988 19.70646973 5.11352539 20.63989258 C5 23 5 23 4 26 C4.99 26.33 5.98 26.66 7 27 C7 27.99 7 28.98 7 30 C5.02 30.99 5.02 30.99 3 32 C0.4661579 28.19923684 0.54777772 24.92004214 0.375 20.5 C0.33705322 19.69643066 0.29910645 18.89286133 0.26000977 18.06494141 C-0.00657912 12.04281333 -0.11949213 6.02771415 0 0 Z " fill="#4073BB" transform="translate(541,74)"/>
<path d="M0 0 C6.75 1.125 6.75 1.125 10.375 3.0625 C11.06335938 3.42472656 11.75171875 3.78695312 12.4609375 4.16015625 C13.22277344 4.57587891 13.22277344 4.57587891 14 5 C12.67290554 8.05297101 11.37204642 9.84224531 8.6875 11.8125 C8.11386719 12.25207031 7.54023437 12.69164062 6.94921875 13.14453125 C5 14 5 14 0 13 C0 8.71 0 4.42 0 0 Z " fill="#578FD7" transform="translate(102,50)"/>
<path d="M0 0 C4.25615057 1.52005378 5.84797692 4.12937062 8 8 C8.45410156 11.61865234 8.45410156 11.61865234 8.390625 15.5859375 C8.38496521 16.28772125 8.37930542 16.989505 8.37347412 17.71255493 C8.35124483 19.93409087 8.30108056 22.15395923 8.25 24.375 C8.22991731 25.88929947 8.21166964 27.40362446 8.1953125 28.91796875 C8.15142633 32.61251268 8.08249577 36.30609333 8 40 C5.03 40 2.06 40 -1 40 C-0.67 39.01 -0.34 38.02 0 37 C0 37.66 0 38.32 0 39 C2.31 39 4.62 39 7 39 C6.88146154 34.94301181 6.75719418 30.88624306 6.62768555 26.82958984 C6.5844545 25.45040622 6.54277134 24.07117315 6.50268555 22.69189453 C6.44469597 20.70593062 6.38062277 18.72014731 6.31640625 16.734375 C6.27974854 15.54038086 6.24309082 14.34638672 6.20532227 13.11621094 C6.0673425 9.43499124 6.0673425 9.43499124 5 6 C3.35 5.34 1.7 4.68 0 4 C0 7.96 0 11.92 0 16 C-6.25948114 18.13391403 -12.42208127 18.58955515 -19 19 C-16.18802543 16.18802543 -13.15988755 16.30097443 -9.375 15.875 C-8.66859375 15.78863281 -7.9621875 15.70226562 -7.234375 15.61328125 C-5.49049859 15.40118817 -3.7453516 15.19959009 -2 15 C-2.26393501 11.56769552 -2.26393501 11.56769552 -3 8 C-6.6441774 5.5705484 -8.71241272 5.83820425 -13 6 C-12.67 5.34 -12.34 4.68 -12 4 C-8.7 4 -5.4 4 -2 4 C-2 3.34 -2 2.68 -2 2 C-1.34 2 -0.68 2 0 2 C0 1.34 0 0.68 0 0 Z " fill="#9DBCDE" transform="translate(522,69)"/>
<path d="M0 0 C3.44419134 9.41002278 3.44419134 9.41002278 3 14 C-2.65394631 14.34615998 -6.03006806 13.43425238 -11 11 C-10.45418801 7.20450741 -8.94590705 5.69020705 -6.0625 3.25 C-5.35222656 2.63640625 -4.64195313 2.0228125 -3.91015625 1.390625 C-2 0 -2 0 0 0 Z " fill="#5B8ED2" transform="translate(122,62)"/>
<path d="M0 0 C0 4.62 0 9.24 0 14 C-4.46225025 13.10754995 -5.91907139 12.69403635 -9.3125 10.125 C-10.00988281 9.61195312 -10.70726563 9.09890625 -11.42578125 8.5703125 C-11.94527344 8.05210938 -12.46476562 7.53390625 -13 7 C-13 6.01 -13 5.02 -13 4 C-7.79253845 0.66722461 -6.6233989 0 0 0 Z " fill="#351962" transform="translate(96,51)"/>
<path d="M0 0 C0.86625 0.3403125 0.86625 0.3403125 1.75 0.6875 C1.09 0.6875 0.43 0.6875 -0.25 0.6875 C-1.0941938 4.66727076 -1.69687265 8.65757218 -2.25 12.6875 C2.04 13.3475 6.33 14.0075 10.75 14.6875 C10.42 16.0075 10.09 17.3275 9.75 18.6875 C0.08897316 19.4488769 0.08897316 19.4488769 -4.4375 16.875 C-7.01287764 12.3458876 -7.39413388 7.78481371 -6.25 2.6875 C-3.07048656 -0.42645647 -3.07048656 -0.42645647 0 0 Z " fill="#4376B7" transform="translate(505.25,89.3125)"/>
<path d="M0 0 C2 0 2 0 3.7265625 1.609375 C4.35304688 2.31578125 4.97953125 3.0221875 5.625 3.75 C6.25664063 4.44609375 6.88828125 5.1421875 7.5390625 5.859375 C9 8 9 8 9 12 C4.71 12.99 0.42 13.98 -4 15 C-4.34650743 9.34037856 -3.48055609 5.96111218 -1 1 C-0.67 0.67 -0.34 0.34 0 0 Z " fill="#412462" transform="translate(78,62)"/>
<path d="M0 0 C2.31 0 4.62 0 7 0 C7 0.33 7 0.66 7 1 C5.02 1 3.04 1 1 1 C1.33 1.99 1.66 2.98 2 4 C2.99 3.67 3.98 3.34 5 3 C5 5.31 5 7.62 5 10 C4.34 10 3.68 10 3 10 C1.42726432 12.8424854 1.42726432 12.8424854 1 16 C1 25 1 34 1 43 C0.67 43 0.34 43 0 43 C0 34.75 0 26.5 0 18 C-1.65 18 -3.3 18 -5 18 C-6.0625 15.625 -6.0625 15.625 -7 13 C-6.67 12.34 -6.34 11.68 -6 11 C-4.02 11 -2.04 11 0 11 C0 7.37 0 3.74 0 0 Z " fill="#93B4DD" transform="translate(540,57)"/>
<path d="M0 0 C3 2 3 2 3.6875 4.625 C3.790625 5.40875 3.89375 6.1925 4 7 C4.99 7 5.98 7 7 7 C7 7.66 7 8.32 7 9 C12.445 10.485 12.445 10.485 18 12 C18.33 13.32 18.66 14.64 19 16 C10.77635783 16.47444089 10.77635783 16.47444089 7.75 14.625 C7.1725 14.08875 6.595 13.5525 6 13 C5.113125 12.71125 4.22625 12.4225 3.3125 12.125 C1 11 1 11 0.125 8.5 C0 6 0 6 1 4 C0.34 4 -0.32 4 -1 4 C-0.67 2.68 -0.34 1.36 0 0 Z " fill="#4373B7" transform="translate(409,92)"/>
<path d="M0 0 C1.65 0 3.3 0 5 0 C5.19389096 2.4788213 5.38040123 4.95780931 5.5625 7.4375 C5.61857422 8.14455078 5.67464844 8.85160156 5.73242188 9.58007812 C5.86190993 11.38427837 5.93521608 13.19231952 6 15 C5 16 5 16 3.15234375 16.09765625 C1.1015625 16.06510417 -0.94921875 16.03255208 -3 16 C-4.06546953 19.1964086 -4.07427838 21.65747276 -4 25 C-5.32 24.67 -6.64 24.34 -8 24 C-7.01 24 -6.02 24 -5 24 C-6.4859916 19.40693504 -8.85014682 16.56430755 -12 13 C-11.34 13 -10.68 13 -10 13 C-10.33 10.69 -10.66 8.38 -11 6 C-9 6 -9 6 -6.625 8.3125 C-5.75875 9.199375 -4.8925 10.08625 -4 11 C-1.09351927 13.46610486 0.13832612 14.03458153 4 15 C4 10.38 4 5.76 4 1 C2.68 0.67 1.36 0.34 0 0 Z " fill="#C8C2D8" transform="translate(92,50)"/>
<path d="M0 0 C2.97 0.495 2.97 0.495 6 1 C7.19478716 4.58436147 6.96330984 6.36906292 6 10 C5.29875 10.61875 4.5975 11.2375 3.875 11.875 C2.946875 12.926875 2.946875 12.926875 2 14 C2.17141333 17.16819991 2.17141333 17.16819991 2.63671875 19.4296875 C3.40956722 24.89779816 3.06967014 30.48831746 3 36 C2.67 36 2.34 36 2 36 C1.89042969 34.98679688 1.78085938 33.97359375 1.66796875 32.9296875 C1.50840107 31.57805539 1.34821167 30.22649657 1.1875 28.875 C1.11724609 28.20984375 1.04699219 27.5446875 0.97460938 26.859375 C0.41993904 22.33326505 -0.89040479 19.00586057 -3 15 C-2.07981522 11.52374638 0.33325192 9.33340457 3 7 C3.66 7 4.32 7 5 7 C4.67 5.68 4.34 4.36 4 3 C1.02549326 3.44066767 -0.11007402 4.09596197 -2.4375 6.125 C-5 8 -5 8 -7.8125 7.75 C-8.534375 7.5025 -9.25625 7.255 -10 7 C-10 6.67 -10 6.34 -10 6 C-8.02 6 -6.04 6 -4 6 C-4.33 5.01 -4.66 4.02 -5 3 C-3.68 3 -2.36 3 -1 3 C-0.67 2.01 -0.34 1.02 0 0 Z " fill="#5D94D5" transform="translate(129,43)"/>
<path d="M0 0 C0.33 0 0.66 0 1 0 C1 3.63 1 7.26 1 11 C4.63 11 8.26 11 12 11 C12.33 12.32 12.66 13.64 13 15 C12.67 15.33 12.34 15.66 12 16 C10.14227838 15.91015699 8.28752015 15.75388139 6.4375 15.5625 C5.42558594 15.46066406 4.41367188 15.35882813 3.37109375 15.25390625 C2.58863281 15.17011719 1.80617187 15.08632812 1 15 C0.73445312 15.72574219 0.46890625 16.45148438 0.1953125 17.19921875 C-1.00072948 20.00170928 -2.40329107 22.30479352 -4.125 24.8125 C-4.66382812 25.60269531 -5.20265625 26.39289063 -5.7578125 27.20703125 C-6.16773437 27.79871094 -6.57765625 28.39039062 -7 29 C-7.33 28.01 -7.66 27.02 -8 26 C-7.34 26 -6.68 26 -6 26 C-5.855625 25.401875 -5.71125 24.80375 -5.5625 24.1875 C-5.1127561 22.43849596 -4.57107659 20.71322977 -4 19 C-3.34 19 -2.68 19 -2 19 C-1.855625 18.195625 -1.71125 17.39125 -1.5625 16.5625 C-1 14 -1 14 0 13 C0.07258946 10.81360547 0.08373783 8.62499611 0.0625 6.4375 C0.05347656 5.23996094 0.04445312 4.04242188 0.03515625 2.80859375 C0.02355469 1.88175781 0.01195312 0.95492187 0 0 Z " fill="#CBDFF8" transform="translate(130,68)"/>
<path d="M0 0 C5.66226761 5.29696003 5.22296173 9.96972317 5.4921875 17.42578125 C5.5137793 18.09432129 5.53537109 18.76286133 5.55761719 19.45166016 C5.62476477 21.49284933 5.70255065 23.53344614 5.78125 25.57421875 C5.82507813 26.85941406 5.86890625 28.14460938 5.9140625 29.46875 C5.9548291 30.64888672 5.9955957 31.82902344 6.03759766 33.04492188 C6 36 6 36 5 39 C2.36 39 -0.28 39 -3 39 C-3.02505615 38.17798096 -3.0501123 37.35596191 -3.07592773 36.5090332 C-3.19212655 32.77670626 -3.31474505 29.04461683 -3.4375 25.3125 C-3.47681641 24.01892578 -3.51613281 22.72535156 -3.55664062 21.39257812 C-3.59853516 20.14541016 -3.64042969 18.89824219 -3.68359375 17.61328125 C-3.72025146 16.46641846 -3.75690918 15.31955566 -3.79467773 14.13793945 C-3.97840298 11.33006722 -4.3699382 8.73774186 -5 6 C-4.34 6 -3.68 6 -3 6 C-1.53901155 8.9219769 -1.88865099 11.49893475 -1.90234375 14.7578125 C-1.90446617 15.75238968 -1.90446617 15.75238968 -1.90663147 16.76705933 C-1.91223246 18.88641863 -1.924785 21.00567259 -1.9375 23.125 C-1.94251488 24.56119639 -1.94707781 25.99739444 -1.95117188 27.43359375 C-1.96220218 30.95576345 -1.97946741 34.47787145 -2 38 C-0.02 38 1.96 38 4 38 C3.91860224 33.49928861 3.80580044 28.99988071 3.6875 24.5 C3.66494141 23.2315625 3.64238281 21.963125 3.61914062 20.65625 C3.4209686 13.73824482 2.85757743 8.31271797 0 2 C0 1.34 0 0.68 0 0 Z " fill="#C5D9F0" transform="translate(484,70)"/>
<path d="M0 0 C0.33 0 0.66 0 1 0 C1 6.6 1 13.2 1 20 C1.66 20 2.32 20 3 20 C3.1546875 19.071875 3.1546875 19.071875 3.3125 18.125 C4 16 4 16 7 14 C8.32 14 9.64 14 11 14 C9.50163895 17.11198065 7.80066242 20.0534615 6 23 C8.31 23 10.62 23 13 23 C13 23.33 13 23.66 13 24 C11.906875 24.20625 10.81375 24.4125 9.6875 24.625 C5.85244751 25.65968387 5.85244751 25.65968387 4.0625 28.75 C2.53455261 33.42372143 2.55799607 37.31348723 4 42 C2.0308579 40.36425762 1.0895767 39.46896036 0.6015625 36.9140625 C0.65210152 31.9780847 1.143039 29.16640146 4 25 C4 23.68 4 22.36 4 21 C2.68 21 1.36 21 0 21 C0 14.07 0 7.14 0 0 Z " fill="#685A7E" transform="translate(322,54)"/>
<path d="M0 0 C0.99 0 1.98 0 3 0 C3 0.99 3 1.98 3 3 C4.41702513 2.85769192 5.8336096 2.71099254 7.25 2.5625 C8.03890625 2.48128906 8.8278125 2.40007812 9.640625 2.31640625 C11.9895729 2.05536338 11.9895729 2.05536338 14.171875 1.40234375 C16 1 16 1 18 2 C18 1.34 18 0.68 18 0 C18.66 0 19.32 0 20 0 C20.48198463 1.24891614 20.96045677 2.49918808 21.4375 3.75 C21.70433594 4.44609375 21.97117187 5.1421875 22.24609375 5.859375 C22.96146693 7.89059003 23.51365652 9.9035291 24 12 C22.68 12.33 21.36 12.66 20 13 C18.68 10.03 17.36 7.06 16 4 C15.21625 4.165 14.4325 4.33 13.625 4.5 C9.06033858 5.12960847 4.59927399 5.08180527 0 5 C-0.33 4.01 -0.66 3.02 -1 2 C-0.67 1.34 -0.34 0.68 0 0 Z " fill="#D4DEF2" transform="translate(97,102)"/>
<path d="M0 0 C0 0.66 0 1.32 0 2 C-5.02597403 6.67532468 -5.02597403 6.67532468 -8.4375 7.8125 C-14.98262455 10.8456065 -19.01625122 17.95726487 -22.00390625 24.265625 C-23.46637286 28.28023923 -24.09598816 32.30486816 -24.640625 36.53125 C-25 39 -25 39 -26 41 C-26.66 40.67 -27.32 40.34 -28 40 C-25.8229042 26.17025811 -21.21634578 14.02415676 -10 5 C-3.05147059 0 -3.05147059 0 0 0 Z " fill="#B6A6CC" transform="translate(74,13)"/>
<path d="M0 0 C0.680625 0.309375 1.36125 0.61875 2.0625 0.9375 C5.36965912 2.13370649 8.51545878 2.59005397 12 3 C12 3.66 12 4.32 12 5 C11.44570312 5.24234375 10.89140625 5.4846875 10.3203125 5.734375 C9.23363281 6.23710938 9.23363281 6.23710938 8.125 6.75 C7.40570313 7.07484375 6.68640625 7.3996875 5.9453125 7.734375 C3.63894456 9.23490354 3.17635503 10.56886627 2 13 C-1.125 14.25 -1.125 14.25 -4 15 C-2.02 12.69 -0.04 10.38 2 8 C0.6696875 7.566875 0.6696875 7.566875 -0.6875 7.125 C-3.50382424 6.16851252 -6.25083156 5.13201054 -9 4 C-9 3.67 -9 3.34 -9 3 C-6.03 3 -3.06 3 0 3 C0 2.01 0 1.02 0 0 Z " fill="#D1E4F6" transform="translate(114,47)"/>
<path d="M0 0 C0 0.99 0 1.98 0 3 C-3.67410785 4.17571451 -7.16929183 4.07366746 -11 4 C-11 4.66 -11 5.32 -11 6 C-12.65 6.33 -14.3 6.66 -16 7 C-16.33 9.64 -16.66 12.28 -17 15 C-16.01 15.33 -15.02 15.66 -14 16 C-14.99 16.33 -15.98 16.66 -17 17 C-17.66 16.67 -18.32 16.34 -19 16 C-19.17835515 11.45194365 -18.99785435 8.1205746 -17 4 C-17.66 3.34 -18.32 2.68 -19 2 C-12.6221448 0.82706111 -6.49678438 -0.29530838 0 0 Z " fill="#4E7CB8" transform="translate(522,86)"/>
<path d="M0 0 C0 3.63 0 7.26 0 11 C1.32 11.33 2.64 11.66 4 12 C1.33333333 12 -1.33333333 12 -4 12 C-6.27911984 12.74291752 -8.50600058 13.5885789 -10.74609375 14.44140625 C-13.24333446 15.06030646 -14.59569841 14.82699212 -17 14 C-12.32097716 11.7981069 -10.37483542 11 -5 11 C-5.33 7.37 -5.66 3.74 -6 0 C-3 -1 -3 -1 0 0 Z " fill="#BCC3E7" transform="translate(102,32)"/>
<path d="M0 0 C0.99 0.66 1.98 1.32 3 2 C2.73445313 2.58007812 2.46890625 3.16015625 2.1953125 3.7578125 C0.22438666 8.11686745 -1.59049252 12.41910068 -3 17 C-3.33 17 -3.66 17 -4 17 C-4.33 15.35 -4.66 13.7 -5 12 C-5.66 13.65 -6.32 15.3 -7 17 C-7.33 17 -7.66 17 -8 17 C-8.19392201 11.47322267 -7.7479503 7.24385089 -6 2 C-4 2 -2 2 0 2 C0 1.34 0 0.68 0 0 Z " fill="#E7E3EE" transform="translate(76,59)"/>
<path d="M0 0 C0.99773437 0.02320312 1.99546875 0.04640625 3.0234375 0.0703125 C4.52777344 0.09738281 4.52777344 0.09738281 6.0625 0.125 C6.83335937 0.14820312 7.60421875 0.17140625 8.3984375 0.1953125 C8.1322407 4.01079994 7.65589477 5.87900785 5.2109375 8.8828125 C-1.73018627 14.58995871 -7.79977769 15.04637566 -16.6015625 14.1953125 C-20.2265625 12.8203125 -20.2265625 12.8203125 -22.6015625 11.1953125 C-23.5915625 10.5353125 -24.5815625 9.8753125 -25.6015625 9.1953125 C-25.2715625 8.5353125 -24.9415625 7.8753125 -24.6015625 7.1953125 C-22.9515625 7.5253125 -21.3015625 7.8553125 -19.6015625 8.1953125 C-19.9315625 9.1853125 -20.2615625 10.1753125 -20.6015625 11.1953125 C-12.86649279 12.92975851 -5.54436141 13.46780413 1.3984375 9.1953125 C2.0584375 9.1953125 2.7184375 9.1953125 3.3984375 9.1953125 C4.81221091 6.55626879 5.77083885 4.12410621 6.3984375 1.1953125 C5.1403125 1.3603125 3.8821875 1.5253125 2.5859375 1.6953125 C0.13387165 2.01689491 -2.11806944 2.1953125 -4.6015625 2.1953125 C-2.6015625 0.1953125 -2.6015625 0.1953125 0 0 Z " fill="#9E96AD" transform="translate(387.6015625,95.8046875)"/>
<path d="M0 0 C0.66 0 1.32 0 2 0 C2 5.61 2 11.22 2 17 C0.02 17.99 0.02 17.99 -2 19 C-3.00496852 15.98509443 -3.10335303 13.95818308 -3.0625 10.8125 C-3.05347656 9.91144531 -3.04445313 9.01039062 -3.03515625 8.08203125 C-3.02355469 7.39496094 -3.01195312 6.70789063 -3 6 C-2.34 6 -1.68 6 -1 6 C-0.67 4.02 -0.34 2.04 0 0 Z " fill="#3C71BA" transform="translate(407,69)"/>
<path d="M0 0 C5.72769829 5.25841208 7.87244772 11.48141358 8.35546875 19.18359375 C8.60081704 26.99845521 8.16728163 33.74164627 5 41 C3.57382271 36.72146814 4.50956445 33.01623506 5.5625 28.6875 C6.6586071 21.95427066 6.80736647 16.7815565 3 11 C1.852116 7.37020465 0.91249423 3.69527804 0 0 Z " fill="#B0C3E7" transform="translate(177,68)"/>
<path d="M0 0 C1.98 0 3.96 0 6 0 C6 0.33 6 0.66 6 1 C4.35 1 2.7 1 1 1 C1.78914921 2.60540659 2.58141765 4.20928016 3.375 5.8125 C4.03628906 7.15248047 4.03628906 7.15248047 4.7109375 8.51953125 C6.01866905 11.14556381 6.01866905 11.14556381 8 14 C5.69 14 3.38 14 1 14 C0.67 14.66 0.34 15.32 0 16 C-1.625 13.8125 -1.625 13.8125 -3 11 C-2.25 8.5625 -2.25 8.5625 -1 6 C-0.62406934 4.0075675 -0.28020455 2.0081326 0 0 Z " fill="#D4CEDD" transform="translate(75,81)"/>
<path d="M0 0 C0.66 0 1.32 0 2 0 C2.02887512 3.64581687 2.04675585 7.29160463 2.0625 10.9375 C2.07087891 11.97841797 2.07925781 13.01933594 2.08789062 14.09179688 C2.09111328 15.08115234 2.09433594 16.07050781 2.09765625 17.08984375 C2.10289307 18.00628662 2.10812988 18.92272949 2.11352539 19.86694336 C2 22 2 22 1 23 C0.92773498 24.85287502 0.9161878 26.70833878 0.9375 28.5625 C0.94652344 29.57441406 0.95554687 30.58632813 0.96484375 31.62890625 C0.97644531 32.41136719 0.98804687 33.19382813 1 34 C0.67 34 0.34 34 0 34 C-3.31707317 23.63414634 -3.31707317 23.63414634 -1 19 C-0.84932786 17.5534758 -0.75138964 16.1012066 -0.68359375 14.6484375 C-0.64169922 13.79765625 -0.59980469 12.946875 -0.55664062 12.0703125 C-0.51732422 11.18085938 -0.47800781 10.29140625 -0.4375 9.375 C-0.39431641 8.4778125 -0.35113281 7.580625 -0.30664062 6.65625 C-0.20043139 4.43765717 -0.09838806 2.2189512 0 0 Z " fill="#38289A" transform="translate(96,9)"/>
<path d="M0 0 C0.66 0 1.32 0 2 0 C2 3.96 2 7.92 2 12 C-0.64 12 -3.28 12 -6 12 C-5.36567062 8.83548038 -4.26817072 6.48312221 -2.5625 3.75 C-2.13066406 3.04359375 -1.69882813 2.3371875 -1.25390625 1.609375 C-0.84011719 1.07828125 -0.42632812 0.5471875 0 0 Z " fill="#1F175E" transform="translate(97,88)"/>
<path d="M0 0 C2.0245738 1.93254772 3.42105792 3.63158688 5 6 C5 7.32 5 8.64 5 10 C2.87506859 10.02693575 0.75004088 10.04636628 -1.375 10.0625 C-2.55835938 10.07410156 -3.74171875 10.08570312 -4.9609375 10.09765625 C-8 10 -8 10 -10 9 C-9.67 8.34 -9.34 7.68 -9 7 C-6.03 7 -3.06 7 0 7 C0 4.69 0 2.38 0 0 Z " fill="#817592" transform="translate(257,100)"/>
<path d="M0 0 C0.66 0.33 1.32 0.66 2 1 C1.34 1.66 0.68 2.32 0 3 C-0.64767793 5.57061311 -0.64767793 5.57061311 -1 8 C-0.34 8 0.32 8 1 8 C1 6.68 1 5.36 1 4 C2.65 4.33 4.3 4.66 6 5 C2.6959847 10.75143403 2.6959847 10.75143403 -0.625 11.9375 C-3 12 -3 12 -5 11 C-4.54663921 6.12637153 -3.2910841 3.60957611 0 0 Z " fill="#87A6CF" transform="translate(503,70)"/>
<path d="M0 0 C0.99 0.33 1.98 0.66 3 1 C2.31292969 1.64066406 1.62585938 2.28132813 0.91796875 2.94140625 C-6.00706157 9.54683529 -6.00706157 9.54683529 -10 18 C-10.56111983 19.64630439 -11.12366395 21.2921239 -11.6875 22.9375 C-12.12802005 24.29068724 -12.56661254 25.64451156 -13 27 C-13.33 27 -13.66 27 -14 27 C-14.54297515 18.22374853 -10.5716523 11.22668506 -4.9765625 4.60546875 C-3.36780519 2.99342826 -1.74677243 1.46006814 0 0 Z " fill="#46257B" transform="translate(64,20)"/>
<path d="M0 0 C0 7.26 0 14.52 0 22 C-0.33 22 -0.66 22 -1 22 C-1 15.07 -1 8.14 -1 1 C-2.98 1.99 -2.98 1.99 -5 3 C-8.06194562 3.13312807 -11.06358402 2.99745664 -14.125 2.875 C-17.06106303 3.00265491 -18.4790823 3.60568711 -21 5 C-23.25 4.625 -23.25 4.625 -25 4 C-16.38082506 0.11292111 -9.49660651 -0.09592532 0 0 Z " fill="#7870C3" transform="translate(99,8)"/>
<path d="M0 0 C4.87664009 -0.34833144 7.77050005 0.58314288 12 3 C12 3.66 12 4.32 12 5 C12.66 5 13.32 5 14 5 C14 5.66 14 6.32 14 7 C11.66666667 6.66666667 9.33333333 6.33333333 7 6 C5.80375 5.855625 4.6075 5.71125 3.375 5.5625 C0.29965092 5.04994182 -2.1743554 4.28438391 -5 3 C-5 2.67 -5 2.34 -5 2 C-3.35 1.67 -1.7 1.34 0 1 C0 0.67 0 0.34 0 0 Z " fill="#3F70B8" transform="translate(427,56)"/>
<path d="M0 0 C0 0.33 0 0.66 0 1 C-1.1446875 1.185625 -1.1446875 1.185625 -2.3125 1.375 C-5.20267136 1.88102792 -5.20267136 1.88102792 -8 4 C-8 4.66 -8 5.32 -8 6 C-14.0546875 6.9765625 -14.0546875 6.9765625 -16 7 C-16.66 6.34 -17.32 5.68 -18 5 C-13.46586082 -1.71724322 -7.50434409 -0.4944297 0 0 Z " fill="#4878BC" transform="translate(433,55)"/>
<path d="M0 0 C-0.66 1.98 -1.32 3.96 -2 6 C-5.3 6 -8.6 6 -12 6 C-11.67 4.35 -11.34 2.7 -11 1 C-7.32589215 -0.17571451 -3.83070817 -0.07366746 0 0 Z " fill="#E1DEEB" transform="translate(87,75)"/>
<path d="M0 0 C0.66 0 1.32 0 2 0 C0.76821009 3.83223528 -1.58695891 5.34580758 -5.07421875 7.1796875 C-10.44548725 9.46765177 -15.38191116 9.03189387 -21 8 C-20.67 7.34 -20.34 6.68 -20 6 C-17.77734375 5.7265625 -17.77734375 5.7265625 -14.9375 5.625 C-9.4458732 5.23836656 -4.06746592 4.06746592 0 0 Z " fill="#3B57AE" transform="translate(168,120)"/>
<path d="M0 0 C4.21878192 -0.19622241 7.17010894 0.19769832 11 2 C11 3.32 11 4.64 11 6 C7.30581799 7.231394 4.7943739 6.64432764 1 6 C0 1.125 0 1.125 0 0 Z " fill="#D7E9F8" transform="translate(103,44)"/>
<path d="M0 0 C2.64 0 5.28 0 8 0 C7.75 3.375 7.75 3.375 7 7 C4.9375 8.4375 4.9375 8.4375 3 9 C3 8.34 3 7.68 3 7 C2.34 7 1.68 7 1 7 C0.67 4.69 0.34 2.38 0 0 Z " fill="#346DCF" transform="translate(111,83)"/>
<path d="M0 0 C3.47799431 0.06955989 6.07517735 0.2196182 8.80078125 2.51953125 C13 7.2799821 13 7.2799821 13 11 C14.98 11 16.96 11 19 11 C18.67 8.69 18.34 6.38 18 4 C20.57781906 6.57781906 20.62129616 8.4401839 21 12 C20 13 20 13 18.15234375 13.09765625 C16.1015625 13.06510417 14.05078125 13.03255208 12 13 C11.62875 11.9275 11.2575 10.855 10.875 9.75 C9.16859798 5.72776666 6.8128165 4.14470928 3 2 C2.01 1.34 1.02 0.68 0 0 Z " fill="#B5C8E0" transform="translate(427,60)"/>
<path d="M0 0 C2.93493396 0.41927628 3.88989537 0.87924008 5.9375 3.125 C6.618125 3.74375 7.29875 4.3625 8 5 C10.57540213 4.83492354 10.57540213 4.83492354 13 4 C13.99 4 14.98 4 16 4 C14.875 5.5 14.875 5.5 13 7 C9.90498792 7.25265405 7.79870027 7.39935013 5 6 C4.67 6.66 4.34 7.32 4 8 C2.35 6.68 0.7 5.36 -1 4 C-0.67 2.68 -0.34 1.36 0 0 Z " fill="#C8BCDA" transform="translate(66,46)"/>
<path d="M0 0 C0.33 0.99 0.66 1.98 1 3 C-0.39080108 4.58775549 -1.78788404 6.17000939 -3.1875 7.75 C-3.96480469 8.63171875 -4.74210938 9.5134375 -5.54296875 10.421875 C-9.69959318 14.78335691 -13.16539532 17.37173823 -19 19 C-17.21770775 17.03009804 -15.73291166 15.85373734 -13.375 14.5625 C-10.84006576 13.23040958 -10.84006576 13.23040958 -10.1875 10.8125 C-10.125625 10.214375 -10.06375 9.61625 -10 9 C-9.34 9 -8.68 9 -8 9 C-7.67 8.01 -7.34 7.02 -7 6 C-6.01 6 -5.02 6 -4 6 C-1.78831775 3.05763218 -1.78831775 3.05763218 0 0 Z " fill="#9DAEDD" transform="translate(180,109)"/>
<path d="M0 0 C1.31471568 0.28151087 2.62675767 0.57553339 3.9375 0.875 C4.66839844 1.03742188 5.39929688 1.19984375 6.15234375 1.3671875 C8 2 8 2 9 4 C11.54941373 4.31241371 14.00361513 4.51303421 16.5625 4.625 C17.27341797 4.66367188 17.98433594 4.70234375 18.71679688 4.7421875 C20.47742425 4.83671783 22.23867728 4.91945817 24 5 C19.30787793 8.12808138 14.48929424 7.70002363 9 7 C5.27982272 5.45566715 1.84360085 3.68720169 0 0 Z " fill="#9BB5D5" transform="translate(410,103)"/>
<path d="M0 0 C0.66 0 1.32 0 2 0 C2.01981934 0.83249268 2.03963867 1.66498535 2.06005859 2.52270508 C2.13820742 5.614765 2.22490206 8.70643383 2.31738281 11.7980957 C2.37444092 13.7929536 2.42164442 15.7880854 2.46875 17.78320312 C2.50742187 19.03681641 2.54609375 20.29042969 2.5859375 21.58203125 C2.6173584 22.73936768 2.6487793 23.8967041 2.68115234 25.08911133 C2.79471033 28.19127028 2.79471033 28.19127028 5 31 C4.01 31 3.02 31 2 31 C0.37358237 27.74716474 0.61364032 24.14389934 0.4375 20.5625 C0.3950415 19.75441895 0.35258301 18.94633789 0.30883789 18.11376953 C0.00915587 12.07309662 -0.1198976 6.04816793 0 0 Z " fill="#4D76B1" transform="translate(541,74)"/>
<path d="M0 0 C0.91007812 0.10183594 1.82015625 0.20367187 2.7578125 0.30859375 C3.45648438 0.39238281 4.15515625 0.47617188 4.875 0.5625 C5.205 1.8825 5.535 3.2025 5.875 4.5625 C-2.31756018 5.19269694 -2.31756018 5.19269694 -5.6875 2.5625 C-6.3990625 1.5725 -6.3990625 1.5725 -7.125 0.5625 C-4.50184968 -0.74907516 -2.89466564 -0.33399988 0 0 Z " fill="#3B69B2" transform="translate(422.125,103.4375)"/>
<path d="M0 0 C4.87549176 1.30108431 7.7234779 3.17085748 11.375 6.625 C12.24898437 7.44226562 13.12296875 8.25953125 14.0234375 9.1015625 C15.00183594 10.04128906 15.00183594 10.04128906 16 11 C15.67 11.66 15.34 12.32 15 13 C13.70094902 12.2628641 12.41098878 11.50969444 11.125 10.75 C10.40570313 10.33234375 9.68640625 9.9146875 8.9453125 9.484375 C6.77806596 7.83065274 6.13607848 6.43008714 5 4 C3.67405895 3.63837971 2.34061543 3.30271961 1 3 C0.67 2.01 0.34 1.02 0 0 Z " fill="#87ACDD" transform="translate(161,55)"/>
<path d="M0 0 C0.66 0 1.32 0 2 0 C2.48198463 1.24891614 2.96045677 2.49918808 3.4375 3.75 C3.83775391 4.79414062 3.83775391 4.79414062 4.24609375 5.859375 C4.96146693 7.89059003 5.51365652 9.9035291 6 12 C4.68 12.33 3.36 12.66 2 13 C1.01 10.03 0.02 7.06 -1 4 C-0.34 4 0.32 4 1 4 C0.67 2.68 0.34 1.36 0 0 Z " fill="#C2D4F5" transform="translate(115,102)"/>
<path d="M0 0 C1.65 0 3.3 0 5 0 C3.68 3.3 2.36 6.6 1 10 C-0.32 10 -1.64 10 -3 10 C-2.25 3.375 -2.25 3.375 0 0 Z " fill="#D2C8DE" transform="translate(82,105)"/>
<path d="M0 0 C0.6875 1.6875 0.6875 1.6875 1 4 C-0.3125 6.75 -0.3125 6.75 -2 9 C-2.66 9 -3.32 9 -4 9 C-4.12375 9.61875 -4.2475 10.2375 -4.375 10.875 C-5 13 -5 13 -7 15 C-7.99 15 -8.98 15 -10 15 C-10.33 15.99 -10.66 16.98 -11 18 C-10.49735697 13.6154062 -9.09381945 11.58941444 -6.0625 8.4375 C-3.4869279 5.74039455 -1.48818571 3.43607276 0 0 Z " fill="#5879C3" transform="translate(128,88)"/>
<path d="M0 0 C0 0.33 0 0.66 0 1 C-0.75925781 1.19335938 -1.51851562 1.38671875 -2.30078125 1.5859375 C-3.29464844 1.84632812 -4.28851563 2.10671875 -5.3125 2.375 C-6.29863281 2.63023438 -7.28476563 2.88546875 -8.30078125 3.1484375 C-11.1805816 3.91913174 -11.1805816 3.91913174 -14 6 C-16.33707073 7.24156883 -18.4760538 8.1586846 -21 9 C-20.34 7.68 -19.68 6.36 -19 5 C-18.34 5 -17.68 5 -17 5 C-17 4.34 -17 3.68 -17 3 C-11.06108578 0.4084738 -6.45892714 -0.40368295 0 0 Z " fill="#502795" transform="translate(91,10)"/>
<path d="M0 0 C0 3.88694981 -0.97604188 5.67026245 -3 9 C-4.75349418 10.68192299 -6.56563244 12.20340774 -8.4765625 13.703125 C-10.13465604 14.94333073 -10.13465604 14.94333073 -11 17 C-11.66 16.67 -12.32 16.34 -13 16 C-8.71748905 10.62295151 -4.42797123 5.25821584 0 0 Z " fill="#6C5D7F" transform="translate(243,59)"/>
<path d="M0 0 C1.65 0.33 3.3 0.66 5 1 C4.5206753 5.31392226 3.2542015 7.16569547 0 10 C0 8.35 0 6.7 0 5 C-0.99 4.67 -1.98 4.34 -3 4 C-2.01 3.67 -1.02 3.34 0 3 C0 2.01 0 1.02 0 0 Z " fill="#4874B3" transform="translate(441,93)"/>
<path d="M0 0 C3.22448117 3.01645013 4.90219125 4.88754139 5.11352539 9.4519043 C5.10567017 10.87369995 5.10567017 10.87369995 5.09765625 12.32421875 C5.09282227 13.86625977 5.09282227 13.86625977 5.08789062 15.43945312 C5.07951172 16.51130859 5.07113281 17.58316406 5.0625 18.6875 C5.05798828 19.77095703 5.05347656 20.85441406 5.04882812 21.97070312 C5.03703743 24.64719085 5.02058063 27.32356777 5 30 C4.67 30 4.34 30 4 30 C3.98541748 29.43603516 3.97083496 28.87207031 3.95581055 28.29101562 C3.88055146 25.69338054 3.78415516 23.09692357 3.6875 20.5 C3.66494141 19.613125 3.64238281 18.72625 3.61914062 17.8125 C3.3803566 11.90802241 2.28656531 7.44361929 0 2 C0 1.34 0 0.68 0 0 Z " fill="#A6BCDB" transform="translate(484,70)"/>
<path d="M0 0 C0.33 0 0.66 0 1 0 C1 3.3 1 6.6 1 10 C3.64 10 6.28 10 9 10 C9 11.98 9 13.96 9 16 C7.35 16.33 5.7 16.66 4 17 C4 16.34 4 15.68 4 15 C4.99 15 5.98 15 7 15 C7 14.01 7 13.02 7 12 C4.69 11.67 2.38 11.34 0 11 C0 7.37 0 3.74 0 0 Z " fill="#9CBADC" transform="translate(547,58)"/>
<path d="M0 0 C1.43905299 2.87810599 1.55482518 5.82812939 2 9 C2.33 9.99 2.66 10.98 3 12 C3.06970052 14.39490986 3.08448003 16.79167691 3.0625 19.1875 C3.05347656 20.45980469 3.04445312 21.73210937 3.03515625 23.04296875 C3.02355469 24.01878906 3.01195312 24.99460937 3 26 C2.67 26 2.34 26 2 26 C1.83564453 24.48019531 1.83564453 24.48019531 1.66796875 22.9296875 C1.50840107 21.57805539 1.34821167 20.22649657 1.1875 18.875 C1.11724609 18.20984375 1.04699219 17.5446875 0.97460938 16.859375 C0.41950666 12.32973684 -0.91165874 9.01695103 -3 5 C-2.28739821 2.80281116 -1.61450567 1.61450567 0 0 Z " fill="#6691D0" transform="translate(129,53)"/>
<path d="M0 0 C1.52256162 4.36006283 0.15083433 6.7935993 -1.7421875 10.8046875 C-3.45715906 13.79789873 -5.39480322 15.75663611 -8 18 C-7.42482026 14.4051266 -5.74776707 11.75982496 -3.921875 8.68359375 C-2.90544138 6.82731031 -2.33443221 5.09020128 -2 3 C-1.34 3 -0.68 3 0 3 C0 2.01 0 1.02 0 0 Z " fill="#4667B5" transform="translate(182,99)"/>
<path d="M0 0 C1.67542976 0.28604898 3.34385343 0.61781233 5 1 C5 2.65 5 4.3 5 6 C3.34385343 6.38218767 1.67542976 6.71395102 0 7 C-1 6 -1 6 -1.125 3.5 C-1 1 -1 1 0 0 Z " fill="#4068AD" transform="translate(97,71)"/>
<path d="M0 0 C2.78622674 4.17934012 3.15730954 7.07291745 3.1875 12 C3.20167969 13.051875 3.21585937 14.10375 3.23046875 15.1875 C3 18 3 18 1 21 C0.67 14.07 0.34 7.14 0 0 Z " fill="#A099B0" transform="translate(350,77)"/>
<path d="M0 0 C1.98 0 3.96 0 6 0 C6 3.3 6 6.6 6 10 C5.34 10 4.68 10 4 10 C4 7.36 4 4.72 4 2 C3.01 2.495 3.01 2.495 2 3 C1.59270772 5.32156597 1.25561323 7.6568787 1 10 C0.67 10 0.34 10 0 10 C0 6.7 0 3.4 0 0 Z " fill="#557DB2" transform="translate(541,58)"/>
<path d="M0 0 C0 2.62113708 -0.31292445 4.50935112 -1 7 C-2.32 7.33 -3.64 7.66 -5 8 C-6.32 6.35 -7.64 4.7 -9 3 C-6.03 2.01 -3.06 1.02 0 0 Z " fill="#E2DEEA" transform="translate(91,45)"/>
<path d="M0 0 C0.33 0 0.66 0 1 0 C1.02578125 0.83402344 1.0515625 1.66804688 1.078125 2.52734375 C1.41080603 9.12803791 2.08905536 14.40213821 5.16015625 20.29296875 C6 22 6 22 6 24 C5.01 24 4.02 24 3 24 C-0.11584616 15.95073076 -0.33328851 8.56674915 0 0 Z " fill="#BACBE5" transform="translate(410,75)"/>
<path d="M0 0 C0 4.62 0 9.24 0 14 C-1.65 13.67 -3.3 13.34 -5 13 C-4.34 12.67 -3.68 12.34 -3 12 C-2.34 12.33 -1.68 12.66 -1 13 C-1 9.04 -1 5.08 -1 1 C-2.36125 1.7734375 -2.36125 1.7734375 -3.75 2.5625 C-7 4 -7 4 -9.375 3.6875 C-10.179375 3.3471875 -10.179375 3.3471875 -11 3 C-6.75755532 0.00533317 -5.65814459 0 0 0 Z " fill="#4F3C75" transform="translate(96,51)"/>
<path d="M0 0 C0.66 0.33 1.32 0.66 2 1 C2 2.65 2 4.3 2 6 C2.66 6 3.32 6 4 6 C4 6.66 4 7.32 4 8 C4.99 8.33 5.98 8.66 7 9 C3.94736336 9.98120464 2.05263664 9.98120464 -1 9 C-1.09765625 2.84765625 -1.09765625 2.84765625 -1 1 C-0.67 0.67 -0.34 0.34 0 0 Z " fill="#5B8CCE" transform="translate(103,34)"/>
<path d="M0 0 C1.65 0 3.3 0 5 0 C4.67 0.99 4.34 1.98 4 3 C2.68 2.67 1.36 2.34 0 2 C0 2.99 0 3.98 0 5 C-1.31787285 6.02028865 -2.65210653 7.01971384 -4 8 C-4.33 8.99 -4.66 9.98 -5 11 C-6.65 11 -8.3 11 -10 11 C-9.21625 10.236875 -8.4325 9.47375 -7.625 8.6875 C-4.92742283 6.09108195 -4.92742283 6.09108195 -3 3 C-2.34 3 -1.68 3 -1 3 C-0.67 2.01 -0.34 1.02 0 0 Z " fill="#627DB9" transform="translate(441,91)"/>
<path d="M0 0 C-0.33 0.66 -0.66 1.32 -1 2 C-3.71982006 2.6993823 -6.39808801 3.04683388 -9.1875 3.375 C-12.32025692 3.73082124 -12.32025692 3.73082124 -14 7 C-14.33 5.02 -14.66 3.04 -15 1 C-13.25215171 0.63536268 -11.50159498 0.2836922 -9.75 -0.0625 C-8.28820312 -0.35833984 -8.28820312 -0.35833984 -6.796875 -0.66015625 C-4.131881 -0.98397535 -2.51128277 -0.85503199 0 0 Z " fill="#516CB9" transform="translate(114,106)"/>
<path d="M0 0 C2.97 0.495 2.97 0.495 6 1 C3 3 3 3 1 3 C0.67 5.64 0.34 8.28 0 11 C0.99 11.33 1.98 11.66 3 12 C2.01 12.33 1.02 12.66 0 13 C-0.66 12.67 -1.32 12.34 -2 12 C-2.17835515 7.45194365 -1.99785435 4.1205746 0 0 Z " fill="#759ACC" transform="translate(505,90)"/>
<path d="M0 0 C-1.26691507 0.67408308 -2.53870749 1.33900497 -3.8125 2 C-4.52019531 2.37125 -5.22789063 2.7425 -5.95703125 3.125 C-8 4 -8 4 -11 4 C-11.33 4.66 -11.66 5.32 -12 6 C-12.66 5.67 -13.32 5.34 -14 5 C-13 2 -13 2 -11.07421875 1.015625 C-9.89279297 0.63664062 -9.89279297 0.63664062 -8.6875 0.25 C-7.51767578 -0.14445312 -7.51767578 -0.14445312 -6.32421875 -0.546875 C-3.83078909 -1.03298902 -2.3818103 -0.80665429 0 0 Z " fill="#776392" transform="translate(44,55)"/>
<path d="M0 0 C1.32 0.33 2.64 0.66 4 1 C4 2.32 4 3.64 4 5 C2.46875 6.484375 2.46875 6.484375 0.5 7.75 C-0.47453125 8.39195313 -0.47453125 8.39195313 -1.46875 9.046875 C-1.9740625 9.36140625 -2.479375 9.6759375 -3 10 C-2.67 8.35 -2.34 6.7 -2 5 C-0.68 4.67 0.64 4.34 2 4 C2 3.34 2 2.68 2 2 C0.68 2.33 -0.64 2.66 -2 3 C-1.34 2.01 -0.68 1.02 0 0 Z " fill="#C8E5FB" transform="translate(130,45)"/>
<path d="M0 0 C0.66 0 1.32 0 2 0 C4.13586678 3.20380017 4.23132175 4.01939967 4.125 7.6875 C4.10695313 8.49574219 4.08890625 9.30398437 4.0703125 10.13671875 C4.03550781 11.05904297 4.03550781 11.05904297 4 12 C3.01 12.495 3.01 12.495 2 13 C2.04125 12.236875 2.0825 11.47375 2.125 10.6875 C2.22080824 7.77281584 2.22080824 7.77281584 0 5 C-0.125 2.3125 -0.125 2.3125 0 0 Z M0 13 C2 14 2 14 2 14 Z " fill="#4365BB" transform="translate(118,103)"/>
<path d="M0 0 C2.31 0 4.62 0 7 0 C7.87890625 6.15234375 7.87890625 6.15234375 8 8 C7 9 7 9 3.4375 9.0625 C2.303125 9.041875 1.16875 9.02125 0 9 C1.32 8.34 2.64 7.68 4 7 C4 5.35 4 3.7 4 2 C2.68 1.34 1.36 0.68 0 0 Z " fill="#BBCCE7" transform="translate(97,70)"/>
<path d="M0 0 C1.32 0.66 2.64 1.32 4 2 C3.29666462 4.97722547 2.41751463 7.85256543 1.4375 10.75 C1.03337891 11.94882813 1.03337891 11.94882813 0.62109375 13.171875 C0.41613281 13.77515625 0.21117188 14.3784375 0 15 C-1.09651823 11.58860997 -0.94215473 8.79344419 -0.5625 5.25 C-0.46066406 4.26515625 -0.35882813 3.2803125 -0.25390625 2.265625 C-0.17011719 1.51796875 -0.08632812 0.7703125 0 0 Z " fill="#513A76" transform="translate(69,53)"/>
<path d="M0 0 C0.99 0.33 1.98 0.66 3 1 C-0.63 4.63 -4.26 8.26 -8 12 C-8 8.24111186 -7.049166 7.58681685 -4.5625 4.875 C-3.92441406 4.17117187 -3.28632812 3.46734375 -2.62890625 2.7421875 C-1.76410115 1.81724008 -0.89538137 0.89538137 0 0 Z " fill="#4B2886" transform="translate(64,20)"/>
<path d="M0 0 C4.56454251 0.54339792 7.9728176 1.79463821 12 4 C12 4.33 12 4.66 12 5 C8.7 4.67 5.4 4.34 2 4 C2 3.34 2 2.68 2 2 C1.34 2 0.68 2 0 2 C0 1.34 0 0.68 0 0 Z " fill="#91BAE7" transform="translate(112,9)"/>
<path d="M0 0 C3.96 0 7.92 0 12 0 C12 0.66 12 1.32 12 2 C12.66 2 13.32 2 14 2 C13.67 2.66 13.34 3.32 13 4 C8.71 3.34 4.42 2.68 0 2 C0 1.34 0 0.68 0 0 Z " fill="#5699DF" transform="translate(100,9)"/>
<path d="M0 0 C0.598125 0.226875 1.19625 0.45375 1.8125 0.6875 C1.4825 1.3475 1.1525 2.0075 0.8125 2.6875 C1.4725 3.0175 2.1325 3.3475 2.8125 3.6875 C0.32157189 4.93296405 -0.59830733 4.4642578 -3.1875 3.6875 C-3.1875 5.0075 -3.1875 6.3275 -3.1875 7.6875 C-3.8475 7.6875 -4.5075 7.6875 -5.1875 7.6875 C-5.41803497 4.84423536 -5.54653101 3.22604651 -3.9375 0.8125 C-2.1875 -0.3125 -2.1875 -0.3125 0 0 Z " fill="#4577BA" transform="translate(507.1875,70.3125)"/>
<path d="M0 0 C0.66 0.33 1.32 0.66 2 1 C1.50628906 1.45890625 1.01257812 1.9178125 0.50390625 2.390625 C-0.13675781 3.00421875 -0.77742188 3.6178125 -1.4375 4.25 C-2.07558594 4.85328125 -2.71367187 5.4565625 -3.37109375 6.078125 C-5.08516306 8.10048016 -5.59358878 9.41270605 -6 12 C-7.32 11.67 -8.64 11.34 -10 11 C-8.52116808 9.35386588 -7.04192523 7.70810092 -5.5625 6.0625 C-4.73878906 5.14597656 -3.91507813 4.22945313 -3.06640625 3.28515625 C-1 1 -1 1 0 0 Z " fill="#36225A" transform="translate(27,61)"/>
<path d="M0 0 C2.98295723 2.86752711 4.88561161 4.94767857 6 9 C5.625 11.3125 5.625 11.3125 5 13 C2.53698577 10.53698577 2.23233479 8.72639964 1.375 5.375 C1.11460937 4.37210937 0.85421875 3.36921875 0.5859375 2.3359375 C0.39257812 1.56507812 0.19921875 0.79421875 0 0 Z " fill="#85A8D7" transform="translate(177,68)"/>
<path d="M0 0 C2.625 -0.1875 2.625 -0.1875 5 0 C4.67 0.99 4.34 1.98 4 3 C3.01 3 2.02 3 1 3 C1.57344937 5.86724686 1.8614515 6.8614515 4 9 C3.01 9.33 2.02 9.66 1 10 C1 9.34 1 8.68 1 8 C0.34 8 -0.32 8 -1 8 C-1.625 5.6875 -1.625 5.6875 -2 3 C-1.34 2.01 -0.68 1.02 0 0 Z " fill="#41216F" transform="translate(65,44)"/>
<path d="M0 0 C0.33 0.66 0.66 1.32 1 2 C-2.87684087 3.19287411 -5.91621923 4 -10 4 C-10 3.01 -10 2.02 -10 1 C-6.61981469 -0.04005702 -3.5219721 -0.08004482 0 0 Z " fill="#E1D8EB" transform="translate(67,81)"/>
<path d="M0 0 C3.3 0 6.6 0 10 0 C10.33 1.32 10.66 2.64 11 4 C10 5 10 5 6.9375 5.0625 C5.968125 5.041875 4.99875 5.02125 4 5 C4 4.67 4 4.34 4 4 C5.65 4 7.3 4 9 4 C9 3.34 9 2.68 9 2 C6.03 1.67 3.06 1.34 0 1 C0 0.67 0 0.34 0 0 Z " fill="#B4CEF3" transform="translate(132,79)"/>
<path d="M0 0 C-0.68707031 0.40992187 -1.37414062 0.81984375 -2.08203125 1.2421875 C-3.43361328 2.05042969 -3.43361328 2.05042969 -4.8125 2.875 C-6.15248047 3.67550781 -6.15248047 3.67550781 -7.51953125 4.4921875 C-9.37294724 5.61883092 -11.19529917 6.79686611 -13 8 C-10.75373981 2.28224679 -6.06506476 -1.81951943 0 0 Z " fill="#7C728E" transform="translate(373,69)"/>
<path d="M0 0 C2.10546875 0.4296875 2.10546875 0.4296875 4 1 C3.04882866 2.1725131 2.08882991 3.33787015 1.125 4.5 C0.59132813 5.1496875 0.05765625 5.799375 -0.4921875 6.46875 C-0.98976563 6.9740625 -1.48734375 7.479375 -2 8 C-2.66 8 -3.32 8 -4 8 C-3.63287028 5.28324005 -3.27255401 3.38936287 -1.6875 1.125 C-1.130625 0.75375 -0.57375 0.3825 0 0 Z " fill="#7195C5" transform="translate(411,58)"/>
<path d="M0 0 C2 3 2 3 3 5 C5.3140622 5.73075648 7.64828869 6.40138258 10 7 C10 7.33 10 7.66 10 8 C6.7 8 3.4 8 0 8 C0 5.36 0 2.72 0 0 Z " fill="#4674C0" transform="translate(132,71)"/>
<path d="M0 0 C0.33 0 0.66 0 1 0 C1.02578125 0.91523437 1.0515625 1.83046875 1.078125 2.7734375 C1.13484375 3.96195313 1.1915625 5.15046875 1.25 6.375 C1.29640625 7.55835938 1.3428125 8.74171875 1.390625 9.9609375 C1.65648799 13.11291753 1.65648799 13.11291753 4.046875 14.4140625 C4.69140625 14.60742188 5.3359375 14.80078125 6 15 C3.36 15.66 0.72 16.32 -2 17 C-1.67 15.68 -1.34 14.36 -1 13 C-0.7801777 10.75292759 -0.59516013 8.50228762 -0.4375 6.25 C-0.35371094 5.07953125 -0.26992187 3.9090625 -0.18359375 2.703125 C-0.12300781 1.81109375 -0.06242187 0.9190625 0 0 Z " fill="#CCE1F5" transform="translate(101,50)"/>
<path d="M0 0 C2.0625 -0.375 2.0625 -0.375 5 0 C7.53572282 1.79177109 9.77174488 3.84238121 12 6 C11.67 6.66 11.34 7.32 11 8 C8.5 6.625 8.5 6.625 6 5 C6 4.34 6 3.68 6 3 C4.02 2.34 2.04 1.68 0 1 C0 0.67 0 0.34 0 0 Z " fill="#86A4C9" transform="translate(433,56)"/>
<path d="M0 0 C2.93200474 2.85276137 5.64315404 5.65079784 8 9 C7.67 9.66 7.34 10.32 7 11 C4.32423308 9.99382318 3.2214892 9.45785454 1.953125 6.8359375 C1.72109375 6.02382813 1.4890625 5.21171875 1.25 4.375 C1.00765625 3.55773437 0.7653125 2.74046875 0.515625 1.8984375 C0.34546875 1.27195312 0.1753125 0.64546875 0 0 Z " fill="#90B8E3" transform="translate(135,22)"/>
<path d="M0 0 C0.33 0 0.66 0 1 0 C1.33 2.64 1.66 5.28 2 8 C4.31 8.33 6.62 8.66 9 9 C9 9.33 9 9.66 9 10 C5.7 10 2.4 10 -1 10 C-0.67 6.7 -0.34 3.4 0 0 Z " fill="#99BDE3" transform="translate(147,44)"/>
<path d="M0 0 C0.33 1.32 0.66 2.64 1 4 C0.34 4 -0.32 4 -1 4 C-1.67958603 6.39719432 -1.67958603 6.39719432 -2 9 C-1.34 9.66 -0.68 10.32 0 11 C-1.65 11 -3.3 11 -5 11 C-4.32902328 6.80639551 -2.1441606 3.59665648 0 0 Z " fill="#4A4070" transform="translate(96,89)"/>
<path d="M0 0 C1.56073255 2.34109882 2.86373867 4.56333403 4.125 7.0625 C4.47820312 7.75472656 4.83140625 8.44695312 5.1953125 9.16015625 C6 11 6 11 6 13 C3 12 3 12 1.3125 8.75 C0.16055679 5.45873369 -0.31025348 3.4127883 0 0 Z " fill="#C3D6F4" transform="translate(107,82)"/>
<path d="M0 0 C0 0.66 0 1.32 0 2 C-0.61875 2.185625 -1.2375 2.37125 -1.875 2.5625 C-5.05602866 4.71437233 -5.19451947 7.37533763 -6 11 C-6.33 11 -6.66 11 -7 11 C-7.33 9.02 -7.66 7.04 -8 5 C-7.34 5 -6.68 5 -6 5 C-5.896875 4.360625 -5.79375 3.72125 -5.6875 3.0625 C-5.460625 2.381875 -5.23375 1.70125 -5 1 C-2 0 -2 0 0 0 Z " fill="#DEEFFC" transform="translate(132,47)"/>
<path d="M0 0 C2.64 0 5.28 0 8 0 C8 0.99 8 1.98 8 3 C4.37673261 4.2077558 3.35853631 3.54311128 0 2 C0 1.34 0 0.68 0 0 Z " fill="#E7EDF3" transform="translate(106,47)"/>
<path d="M0 0 C0 0.66 0 1.32 0 2 C-2.8125 4.6875 -2.8125 4.6875 -6 7 C-6.99 6.67 -7.98 6.34 -9 6 C-3.15384615 0 -3.15384615 0 0 0 Z " fill="#8E76B8" transform="translate(74,13)"/>
<path d="M0 0 C2.97 0.495 2.97 0.495 6 1 C5.67 1.99 5.34 2.98 5 4 C7.64 4.66 10.28 5.32 13 6 C8.18145758 7.2046356 7.16971354 6.39536735 3 4 C2.01 3.34 1.02 2.68 0 2 C0 1.34 0 0.68 0 0 Z " fill="#91889E" transform="translate(362,103)"/>
<path d="M0 0 C2 3 2 3 2 6 C4.31 6.33 6.62 6.66 9 7 C9 7.33 9 7.66 9 8 C6.03 8 3.06 8 0 8 C0 5.36 0 2.72 0 0 Z " fill="#210F3C" transform="translate(313,100)"/>
<path d="M0 0 C1.9375 0.625 1.9375 0.625 4 2 C4.75 5.125 4.75 5.125 5 8 C4.01 8.33 3.02 8.66 2 9 C2 6.69 2 4.38 2 2 C1.01 1.67 0.02 1.34 -1 1 C-0.67 0.67 -0.34 0.34 0 0 Z " fill="#6282C0" transform="translate(98,86)"/>
<path d="M0 0 C0.33 1.32 0.66 2.64 1 4 C-0.32 3.67 -1.64 3.34 -3 3 C-3.66 4.32 -4.32 5.64 -5 7 C-5.99 6.34 -6.98 5.68 -8 5 C-2.25 0 -2.25 0 0 0 Z " fill="#729DD2" transform="translate(122,62)"/>
<path d="M0 0 C2.72869407 0.03287583 5.2966618 0.56397771 8 1 C8 1.66 8 2.32 8 3 C1.9453125 3.9765625 1.9453125 3.9765625 0 4 C-0.66 3.34 -1.32 2.68 -2 2 C-1.34 1.34 -0.68 0.68 0 0 Z " fill="#5B8CC1" transform="translate(417,58)"/>
<path d="M0 0 C2.02558881 3.34939881 2.21738987 5.86962551 2.125 9.75 C2.10695313 10.73484375 2.08890625 11.7196875 2.0703125 12.734375 C2.04710938 13.48203125 2.02390625 14.2296875 2 15 C1.67 15 1.34 15 1 15 C-2.31707317 4.63414634 -2.31707317 4.63414634 0 0 Z " fill="#53358C" transform="translate(95,28)"/>
<path d="M0 0 C2.94721162 2.74395564 5.19168608 5.38337216 7 9 C6.67 9.66 6.34 10.32 6 11 C3 7.25 3 7.25 3 5 C2.01 5.33 1.02 5.66 0 6 C0 4.02 0 2.04 0 0 Z " fill="#ADA3B8" transform="translate(250,89)"/>
<path d="M0 0 C-1.24976756 3.65316671 -1.67098753 4.78065836 -5 7 C-5.33 5.35 -5.66 3.7 -6 2 C-2.25 0 -2.25 0 0 0 Z " fill="#F0F2F5" transform="translate(107,78)"/>
<path d="M0 0 C1.65 0 3.3 0 5 0 C4.67 1.32 4.34 2.64 4 4 C4.66 4.33 5.32 4.66 6 5 C4.02 5 2.04 5 0 5 C0 3.35 0 1.7 0 0 Z " fill="#5A84B8" transform="translate(535,69)"/>
<path d="M0 0 C2.16874252 0.50603992 3.99967627 0.99983813 6 2 C5.34 3.32 4.68 4.64 4 6 C3.34 6 2.68 6 2 6 C1.34 4.02 0.68 2.04 0 0 Z " fill="#6A99D2" transform="translate(110,53)"/>
<path d="M0 0 C2.97 0.495 2.97 0.495 6 1 C5.34 1.66 4.68 2.32 4 3 C3.35232207 5.57061311 3.35232207 5.57061311 3 8 C2.01 8.33 1.02 8.66 0 9 C0.185625 8.071875 0.37125 7.14375 0.5625 6.1875 C1.24123881 2.98656229 1.24123881 2.98656229 0 0 Z " fill="#DCD5E8" transform="translate(71,52)"/>
<path d="M0 0 C0.66 0.33 1.32 0.66 2 1 C2 2.65 2 4.3 2 6 C0.35 6 -1.3 6 -3 6 C-2 4 -1 2 0 0 Z " fill="#210C46" transform="translate(255,101)"/>
<path d="M0 0 C2.31 0 4.62 0 7 0 C5.68 0.33 4.36 0.66 3 1 C3 2.32 3 3.64 3 5 C1.35 4.67 -0.3 4.34 -2 4 C-1.34 2.68 -0.68 1.36 0 0 Z " fill="#E6E5F0" transform="translate(94,101)"/>
<path d="M0 0 C0.99 0.33 1.98 0.66 3 1 C3 1.99 3 2.98 3 4 C0.69 4.33 -1.62 4.66 -4 5 C-4 4.34 -4 3.68 -4 3 C-2.68 3 -1.36 3 0 3 C0 2.01 0 1.02 0 0 Z " fill="#5D84C4" transform="translate(104,95)"/>
<path d="M0 0 C2.475 0.495 2.475 0.495 5 1 C5 3.31 5 5.62 5 8 C2.20127563 5.47211993 0.54226981 3.79588866 0 0 Z " fill="#8AA8D3" transform="translate(405,95)"/>
<path d="M0 0 C0 3.88182751 -0.99521992 5.91792914 -3.625 8.75 C-4.305625 9.36875 -4.305625 9.36875 -5 10 C-5.66 9.67 -6.32 9.34 -7 9 C-4.69 6.03 -2.38 3.06 0 0 Z " fill="#7C698E" transform="translate(237,66)"/>
<path d="M0 0 C1.32 0 2.64 0 4 0 C3.6875 1.875 3.6875 1.875 3 4 C2.01 4.66 1.02 5.32 0 6 C-0.99 5.67 -1.98 5.34 -3 5 C-2.34 4.67 -1.68 4.34 -1 4 C-0.34786708 1.97536745 -0.34786708 1.97536745 0 0 Z " fill="#7C9BC9" transform="translate(437,102)"/>
<path d="M0 0 C1.22589844 0.01353516 1.22589844 0.01353516 2.4765625 0.02734375 C3.41628906 0.04474609 3.41628906 0.04474609 4.375 0.0625 C4.375 1.0525 4.375 2.0425 4.375 3.0625 C-3.25 2.1875 -3.25 2.1875 -6.625 1.0625 C-4.21954362 -0.14022819 -2.67503047 -0.03821472 0 0 Z " fill="#7CA1D6" transform="translate(475.625,72.9375)"/>
<path d="M0 0 C1.9375 1.125 1.9375 1.125 4 3 C4.75 6.1875 4.75 6.1875 5 9 C4.01 8.67 3.02 8.34 2 8 C1.26953125 6.15234375 1.26953125 6.15234375 0.8125 3.9375 C0.65394531 3.20402344 0.49539063 2.47054687 0.33203125 1.71484375 C0.22246094 1.14894531 0.11289062 0.58304688 0 0 Z " fill="#5C84B6" transform="translate(441,61)"/>
<path d="M0 0 C0.66 0 1.32 0 2 0 C3.7143618 1.95927063 5.38405168 3.95880212 7 6 C5.02 6 3.04 6 1 6 C0.67 4.02 0.34 2.04 0 0 Z " fill="#D3CDE1" transform="translate(81,56)"/>
<path d="M0 0 C0 2 0 2 -1.875 3.9375 C-2.57625 4.618125 -3.2775 5.29875 -4 6 C-4.66 6.99 -5.32 7.98 -6 9 C-5.67 6.36 -5.34 3.72 -5 1 C-2 0 -2 0 0 0 Z " fill="#4C85D7" transform="translate(135,51)"/>
<path d="M0 0 C6.52307692 -0.36923077 6.52307692 -0.36923077 8.9375 1.5 C9.288125 1.995 9.63875 2.49 10 3 C4.58461538 3.36923077 4.58461538 3.36923077 1.625 1.5 C1.08875 1.005 0.5525 0.51 0 0 Z " fill="#80B2E3" transform="translate(119,14)"/>
<path d="M0 0 C3 3.75 3 3.75 3 6 C3.66 6.66 4.32 7.32 5 8 C3.35 8 1.7 8 0 8 C-0.79953138 4.71303767 -1.09658936 3.28976808 0 0 Z " fill="#4979B5" transform="translate(441,63)"/>
<path d="M0 0 C0.99 0.495 0.99 0.495 2 1 C2 2.65 2 4.3 2 6 C2.66 6 3.32 6 4 6 C4 6.66 4 7.32 4 8 C2.68 8 1.36 8 0 8 C0 5.36 0 2.72 0 0 Z " fill="#4E8DDE" transform="translate(103,34)"/>
<path d="M0 0 C0.33 0 0.66 0 1 0 C1 2.64 1 5.28 1 8 C0.01 8.495 0.01 8.495 -1 9 C-1.625 5.625 -1.625 5.625 -2 2 C-1.34 1.34 -0.68 0.68 0 0 Z " fill="#E9EEF9" transform="translate(99,33)"/>
<path d="M0 0 C1.875 0.3125 1.875 0.3125 4 1 C4.66 1.99 5.32 2.98 6 4 C4.68 4 3.36 4 2 4 C1.34 2.68 0.68 1.36 0 0 Z " fill="#2F1F48" transform="translate(23,118)"/>
<path d="M0 0 C0.66 0 1.32 0 2 0 C2 1.32 2 2.64 2 4 C-0.64 4 -3.28 4 -6 4 C-5.38125 3.71125 -4.7625 3.4225 -4.125 3.125 C-1.86674235 2.06279958 -1.86674235 2.06279958 0 0 Z " fill="#3D6CAF" transform="translate(553,103)"/>
<path d="M0 0 C0 3.10551666 -0.5393715 4.35261084 -2 7 C-3.65 7 -5.3 7 -7 7 C-4.66666667 4.66666667 -2.33333333 2.33333333 0 0 Z " fill="#9CB4E0" transform="translate(438,95)"/>
<path d="M0 0 C1.98 0.495 1.98 0.495 4 1 C4 1.99 4 2.98 4 4 C2.35 4 0.7 4 -1 4 C-0.67 2.68 -0.34 1.36 0 0 Z " fill="#E9E6F0" transform="translate(76,77)"/>
<path d="M0 0 C2.62187494 1.04874998 3.79371361 1.64931313 5.25 4.125 C5.4975 4.74375 5.745 5.3625 6 6 C3.69 5.01 1.38 4.02 -1 3 C-0.67 2.01 -0.34 1.02 0 0 Z " fill="#766B8B" transform="translate(387,70)"/>
</svg>
